<?xml version="1.0" encoding="UTF-8" standalone="no"?>
<!-- Created with Inkscape (http://www.inkscape.org/) -->

<svg
   width="98.453751mm"
   height="127mm"
   viewBox="0 0 98.453751 127"
   version="1.1"
   id="svg1"
   inkscape:version="1.4.2 (f4327f4, 2025-05-13)"
   sodipodi:docname="Campeonato Brasileiro Série A logo (2024).svg"
   xmlns:inkscape="http://www.inkscape.org/namespaces/inkscape"
   xmlns:sodipodi="http://sodipodi.sourceforge.net/DTD/sodipodi-0.dtd"
   xmlns="http://www.w3.org/2000/svg"
   xmlns:svg="http://www.w3.org/2000/svg">
  <sodipodi:namedview
     id="namedview1"
     pagecolor="#ffffff"
     bordercolor="#000000"
     borderopacity="0.25"
     inkscape:showpageshadow="2"
     inkscape:pageopacity="0.0"
     inkscape:pagecheckerboard="0"
     inkscape:deskcolor="#d1d1d1"
     inkscape:document-units="mm"
     inkscape:zoom="0.88194444"
     inkscape:cx="342.4252"
     inkscape:cy="253.41732"
     inkscape:window-width="1366"
     inkscape:window-height="697"
     inkscape:window-x="-8"
     inkscape:window-y="-8"
     inkscape:window-maximized="1"
     inkscape:current-layer="layer1" />
  <defs
     id="defs1" />
  <g
     inkscape:label="Layer 1"
     inkscape:groupmode="layer"
     id="layer1"
     transform="translate(-178.59375,-215.9)">
    <path
       d="m 185.12516,319.24128 c 1.51802,0 2.65941,0.45442 2.65941,1.79508 v 0.22176 c 0,0.6318 -0.26604,1.05276 -0.83102,1.37415 v 0.26596 c 0.66463,0.3104 0.96403,0.83093 0.96403,1.52897 v 0.32139 c 0,1.15233 -0.87535,1.91704 -2.64845,1.91704 h -5.60678 v -7.4237 h 5.46281 z m -3.25776,2.92548 h 2.85871 c 0.46531,0 0.79764,-0.144 0.79764,-0.55401 v -0.1884 c 0,-0.38763 -0.33233,-0.54305 -0.79764,-0.54305 h -2.85871 z m 0,2.85867 h 2.91401 c 0.55401,0 0.88632,-0.1884 0.88632,-0.62026 v -0.17736 c 0,-0.4543 -0.33231,-0.59832 -0.88632,-0.59832 h -2.91401 z"
       fill="white"
       id="path833"
       style="fill:#131428;fill-opacity:1;stroke-width:1.40648" />
    <path
       d="m 194.72175,319.24128 c 1.67299,0 2.61506,0.95316 2.61506,2.26035 v 0.35472 c 0,0.90873 -0.46541,1.65108 -1.25205,2.02773 l 1.56247,2.78103 h -2.50452 l -1.41845,-2.52646 h -2.32701 v 2.52646 h -2.26037 v -7.42383 h 5.58444 z m -3.32407,3.15811 h 2.80339 c 0.58733,0 0.85344,-0.21072 0.85344,-0.64262 v -0.144 c 0,-0.39902 -0.26611,-0.65359 -0.85344,-0.65359 h -2.80339 z"
       fill="white"
       id="path835"
       style="fill:#131428;fill-opacity:1;stroke-width:1.40648" />
    <path
       d="m 204.62732,319.24128 3.19101,7.42383 h -2.22701 l -0.59832,-1.39594 h -4.19935 l -0.59844,1.39594 h -2.13871 l 3.19104,-7.42383 h 3.37934 z m -3.06936,4.26615 h 2.67033 l -1.10803,-2.57079 h -0.46541 z"
       fill="white"
       id="path837"
       style="fill:#131428;fill-opacity:1;stroke-width:1.40648" />
    <path
       d="m 212.41515,319.13071 c 2.33813,0 3.86712,0.78665 3.86712,2.48204 v 0.1884 h -2.17162 v -0.1884 c 0,-0.62026 -0.67608,-0.79762 -1.70647,-0.79762 h -0.26597 c -1.07469,0 -1.71732,0.16632 -1.71732,0.49874 v 0.0886 c 0,0.43193 0.42096,0.52068 2.61507,0.76469 2.38245,0.28805 3.37936,0.93067 3.37936,2.22703 v 0.11064 c 0,1.374 -1.34066,2.27134 -3.94476,2.27134 h -0.27708 c -2.70367,0 -4.0553,-0.90874 -4.0553,-2.59272 v -0.16632 h 2.16062 v 0.16632 c 0,0.74234 0.68708,0.89777 1.90565,0.89777 h 0.26611 c 1.09704,0 1.75066,-0.144 1.75066,-0.53208 v -0.0998 c 0,-0.40999 -0.59832,-0.52054 -2.67036,-0.74235 -2.1941,-0.22176 -3.3131,-0.85329 -3.3131,-2.19396 v -0.0996 c 0,-1.48468 1.49565,-2.28273 3.90045,-2.28273 z"
       fill="white"
       id="path839"
       style="fill:#131428;fill-opacity:1;stroke-width:1.40648" />
    <path
       d="m 223.19667,319.24128 v 1.83939 h -1.79508 v 3.74505 h 1.79508 v 1.83939 h -5.83956 v -1.83939 h 1.79508 v -3.74505 h -1.79508 v -1.83939 z"
       fill="white"
       id="path841"
       style="fill:#131428;fill-opacity:1;stroke-width:1.40648" />
    <path
       d="m 226.67518,319.24128 v 5.58444 h 4.70904 v 1.83939 h -6.96996 v -7.42383 h 2.26037 z"
       fill="white"
       id="path843"
       style="fill:#131428;fill-opacity:1;stroke-width:1.40648" />
    <path
       d="m 239.73943,319.24128 v 1.79508 h -5.20778 v 0.99735 h 4.62029 v 1.68439 h -4.62029 v 1.15248 h 5.26306 v 1.79496 h -7.52384 v -7.42371 h 7.46801 z"
       fill="white"
       id="path845"
       style="fill:#131428;fill-opacity:1;stroke-width:1.40648" />
    <path
       d="m 246.68647,319.24128 v 1.83939 h -1.79496 v 3.74505 h 1.79496 v 1.83939 h -5.83944 v -1.83939 h 1.79511 v -3.74505 h -1.79511 v -1.83939 z"
       fill="white"
       id="path847"
       style="fill:#131428;fill-opacity:1;stroke-width:1.40648" />
    <path
       d="m 253.49131,319.24128 c 1.67302,0 2.61507,0.95316 2.61507,2.26035 v 0.35472 c 0,0.90873 -0.46527,1.65108 -1.25191,2.02773 l 1.56232,2.78103 h -2.50396 l -1.41843,-2.52646 h -2.32701 v 2.52646 h -2.26052 v -7.42383 z m -3.32392,3.15811 h 2.80339 c 0.58735,0 0.85332,-0.21072 0.85332,-0.64262 v -0.144 c 0,-0.39902 -0.26597,-0.65359 -0.85332,-0.65359 h -2.80339 z"
       fill="white"
       id="path849"
       style="fill:#131428;fill-opacity:1;stroke-width:1.40648" />
    <path
       d="m 263.39746,319.24128 3.19101,7.42383 h -2.22701 l -0.59834,-1.39608 h -4.19947 l -0.5983,1.39608 h -2.13885 l 3.19104,-7.42383 h 3.37934 z m -0.98609,-1.88371 c 0.17736,0 0.24374,-0.13296 0.24374,-0.53206 h 1.13038 c 0,1.03037 -0.40999,1.55148 -1.30733,1.55148 -0.94205,0 -1.15231,-0.57652 -1.54037,-0.57652 -0.21096,0 -0.27708,0.16632 -0.27708,0.53208 h -1.119 c 0,-1.01928 0.39903,-1.5404 1.29636,-1.5404 0.96401,0 1.20761,0.56499 1.5733,0.56499 z m -2.08344,6.14986 h 2.67036 l -1.10803,-2.57079 h -0.46527 z"
       fill="white"
       id="path851"
       style="fill:#131428;fill-opacity:1;stroke-width:1.40648" />
    <path
       d="m 271.57488,319.13071 c 2.4377,0 4.33238,1.20761 4.33238,3.39077 v 0.88635 c 0,2.17161 -1.89468,3.3684 -4.33238,3.3684 h -0.44333 c -2.49312,0 -4.42113,-1.19679 -4.42113,-3.3684 v -0.88635 c 0,-2.18258 1.92801,-3.39077 4.42113,-3.39077 z m -2.57076,3.42368 v 0.79761 c 0,0.95304 0.77566,1.47372 2.12743,1.47372 h 0.35458 c 1.34078,0 2.12745,-0.52068 2.12745,-1.47372 v -0.79761 c 0,-0.95304 -0.78667,-1.47372 -2.12745,-1.47372 h -0.35458 c -1.35177,0 -2.12743,0.52068 -2.12743,1.47372 z"
       fill="white"
       id="path853"
       style="fill:#131428;fill-opacity:1;stroke-width:1.40648" />
    <path
       d="m 219.93927,335.15942 c -2.59947,0 -4.4791,2.16161 -4.4791,4.51256 0,2.02996 1.41197,3.22759 3.28104,3.22759 1.86907,0 3.03055,-1.16247 3.3954,-2.59356 -0.50239,0.36062 -1.365,0.76781 -2.33856,0.76781 -0.83237,0 -1.8311,-0.356 -1.92842,-1.45712 2.09073,-0.27244 3.79524,-0.94221 4.72226,-1.64376 0.0144,-0.11712 0.0293,-0.28706 0.0293,-0.50647 0,-1.18301 -0.74052,-2.30748 -2.68231,-2.30748 z m 0.30674,2.97893 h -2.27863 c 0.20472,-1.05134 0.94937,-1.8252 1.6799,-1.8252 0.49635,0 0.72996,0.26287 0.72996,0.9055 0,0.29213 -0.0434,0.59887 -0.13128,0.92011 z m 26.53061,-2.97893 c -2.67274,0 -4.57107,2.07384 -4.57107,4.73196 0,1.94223 1.51901,3.00819 3.4027,3.00819 2.67218,0 4.57051,-2.07387 4.57051,-4.73196 0,-1.94223 -1.51843,-3.00819 -3.40269,-3.00819 z m -1.08058,6.55716 c -0.61351,0 -0.94939,-0.49648 -0.94939,-1.43124 0,-1.85486 0.7446,-3.94336 1.94222,-3.94336 0.61337,0 0.94937,0.49634 0.94937,1.43109 0,1.85501 -0.75979,3.94308 -1.9422,3.94308 z m -3.5933,-4.67347 c 0,0.23352 -0.024,0.49467 -0.0782,0.774 l -0.95851,4.93618 H 238.684 l 0.84531,-4.35207 c 0.0434,-0.21912 0.0612,-0.4086 0.0612,-0.58411 0,-0.68623 -0.36471,-0.99285 -1.02209,-0.99285 -0.26273,0 -0.58877,0.0845 -0.79762,0.17496 l -1.11717,5.75404 h -2.38104 l 1.44672,-7.44801 h 2.38104 l -0.26276,1.34347 c 0.38624,-0.61858 1.24685,-1.48975 2.36727,-1.48975 1.0367,0 1.89789,0.62798 1.89789,1.88371 z m -7.61849,0.48511 c 0,-1.34349 -1.1706,-2.3688 -2.8093,-2.3688 -2.03913,0 -3.10382,1.34163 -3.41776,2.59354 0.6394,-0.46567 1.54994,-0.76778 2.33856,-0.76778 0.7349,0 1.46359,0.23904 1.46359,0.97862 0,0.0732 0,0.16032 -0.0144,0.27737 -1.87863,0.0758 -4.58568,1.08115 -4.58568,3.15444 0,0.86177 0.62349,1.50439 1.58707,1.50439 0.96358,0 1.85909,-0.65726 2.38512,-1.48975 l -0.2605,1.34347 h 2.38061 l 0.86895,-4.48049 c 0.0434,-0.26287 0.0641,-0.51098 0.0641,-0.7446 z m -2.98399,3.53153 c -0.29213,0.13104 -0.66737,0.21888 -0.94474,0.21888 -0.59887,0 -0.89325,-0.32954 -0.89325,-0.76795 0,-0.92503 1.09622,-1.51154 2.15431,-1.07918 l -0.31673,1.62828 z m -5.35265,0.0144 c 0.3173,0 0.62532,-0.09 1.02617,-0.39211 -0.36751,1.2533 -1.3955,2.21786 -2.49804,2.21786 -1.35346,0 -1.78034,-1.13769 -1.49875,-2.59353 l 0.71673,-3.68611 h -0.97315 l 0.25543,-1.31465 h 0.97596 l 0.26835,-1.40323 2.45179,-0.34474 -0.34277,1.74797 h 2.04137 c -0.15312,0.76428 -0.62842,1.31465 -1.60354,1.31465 h -0.69297 l -0.70111,3.60832 c -0.10824,0.55304 0.1896,0.84557 0.57453,0.84557 z m -11.06592,-2.02166 c 0,2.00071 -2.6927,3.70116 -7.18881,3.70116 h -2.72984 l 1.86543,-9.60334 h 5.99357 c 1.68948,0 2.59399,0.34839 2.59399,1.40242 0,1.26204 -2.01579,2.65219 -5.18767,3.22617 l 1.73025,-2.8792 -2.6435,-0.007 -1.15092,3.54532 1.82294,-0.25598 -2.31761,3.85742 5.46279,-4.53986 c 1.06471,0 1.74938,0.61802 1.74938,1.55318 z"
       fill="white"
       id="path855"
       style="fill:#131428;fill-opacity:1;stroke-width:1.40648" />
    <path
       d="m 259.84368,215.9 c -5.88302,5.24635 -16.25455,10.09404 -31.42459,10.09404 -15.17004,0 -30.90422,-4.84769 -36.78717,-10.09404 l -13.03817,2.1193 14.27522,25.24423 69.39372,-0.60999 14.78481,-24.63424 z"
       fill="#131428"
       id="path857"
       style="stroke-width:1.40648" />
    <path
       d="m 271.77756,268.35968 c 0,24.067 -19.50989,43.57703 -43.57704,43.57703 -24.06703,0 -43.57703,-19.51003 -43.57703,-43.57703 0,-24.06718 19.51,-42.36998 43.57703,-42.36998 24.06715,0 43.57704,18.30338 43.57704,42.37038 z"
       fill="#131428"
       id="path859"
       style="stroke-width:1.40648" />
    <path
       fill-rule="evenodd"
       clip-rule="evenodd"
       d="m 208.53804,268.43772 2.72408,-4.96979 c -0.6,-2.93787 -1.31914,-5.88627 -2.15501,-8.83383 -1.44799,-4.91861 -3.21735,-9.94877 -5.29894,-15.06624 -3.465,-8.21498 -7.10695,-14.56665 -8.94199,-17.35586 l -7.79232,0.77899 c 0,0 5.17008,7.18846 10.69685,17.90136 l 0.007,-0.007 0.47918,0.95851 c 1.28242,2.52478 2.57499,5.23044 3.82114,8.07559 l 0.16848,0.38088 -0.002,0.002 c 2.44742,5.63436 4.69709,11.7949 6.29417,18.13531 z"
       fill="#c7ff00"
       id="path861"
       style="stroke-width:1.40648" />
    <path
       fill-rule="evenodd"
       clip-rule="evenodd"
       d="m 217.33263,283.94463 c -0.58932,-2.10862 -2.80467,-7.39599 -4.38106,-9.46803 0,-4.3e-4 0,-0.001 0,-0.002 -1.89086,-2.76303 -3.70368,-4.49146 -4.12941,-4.88192 1.96723,8.25466 2.97201,16.48131 1.64824,24.51401 1.21042,1.38329 5.87614,3.60636 6.93029,3.99384 0.01,-0.0216 0.0192,-0.0444 0.0314,-0.066 l -0.002,-0.001 c 1.31465,-4.46923 1.26879,-9.20501 -0.0958,-14.08846 z"
       fill="#c7ff00"
       id="path863"
       style="stroke-width:1.40648" />
    <path
       fill-rule="evenodd"
       clip-rule="evenodd"
       d="m 247.47735,268.43772 -2.72396,-4.96979 c 0.59988,-2.93787 1.31902,-5.88627 2.15504,-8.83383 1.44782,-4.91861 3.21717,-9.94877 5.29891,-15.06624 3.46485,-8.21498 7.10695,-14.56665 8.94199,-17.35586 l 7.7922,0.77899 c 0,0 -5.17011,7.18846 -10.69687,17.90136 l -0.007,-0.007 -0.47933,0.95851 c -1.28227,2.52478 -2.57484,5.23044 -3.82111,8.07559 l -0.16848,0.38088 0.002,0.002 c -2.44754,5.63436 -4.69723,11.7949 -6.29428,18.13531 z"
       fill="#c7ff00"
       id="path865"
       style="stroke-width:1.40648" />
    <path
       fill-rule="evenodd"
       clip-rule="evenodd"
       d="m 238.68387,283.94463 c 0.58932,-2.10862 2.80466,-7.39599 4.38105,-9.46803 0,-4.3e-4 0,-0.001 0,-0.002 1.89101,-2.76303 3.70383,-4.49146 4.12944,-4.88192 -1.96725,8.25466 -2.97204,16.48131 -1.64813,24.51401 -1.21056,1.38329 -5.87628,3.60636 -6.93028,3.99384 -0.01,-0.0216 -0.0192,-0.0444 -0.0314,-0.066 l 0.002,-0.001 c -1.31477,-4.46923 -1.26893,-9.20501 0.0955,-14.08846 z"
       fill="#c7ff00"
       id="path867"
       style="stroke-width:1.40648" />
    <path
       fill-rule="evenodd"
       clip-rule="evenodd"
       d="m 228.00641,232.00829 c -10.81653,0 -20.97612,-2.81289 -29.78789,-7.74695 2.62184,4.92876 6.4742,12.82773 8.86676,19.12963 2.27752,5.99976 4.08751,12.05988 5.40751,18.08762 l 14.6478,-26.72316 0.4986,-0.81799 0.36722,-0.48946 0.36739,0.48946 0.49846,0.81799 14.6478,26.72316 c 1.32012,-6.02734 3.12957,-12.08786 5.40765,-18.08762 2.39242,-6.3019 6.24492,-14.20087 8.86659,-19.12963 -8.81119,4.93406 -18.97078,7.74695 -29.78789,7.74695 z"
       fill="#c7ff00"
       id="path869"
       style="stroke-width:1.40648" />
    <path
       fill-rule="evenodd"
       clip-rule="evenodd"
       d="m 258.82541,243.77422 -3.12226,6.81202 c 3.38047,5.16713 5.34533,11.32569 5.34533,17.93167 0,14.91518 -10.01822,27.55087 -23.72834,31.635 -0.7543,-3.18792 -1.34177,-6.62045 -1.34177,-9.59064 0,-3.34083 0.74388,-6.48192 1.96682,-9.45931 0.55457,-1.59622 1.20802,-3.02955 1.87174,-4.27344 1.1868,-2.2255 2.49566,-4.05363 3.61987,-5.43015 1.01547,-1.44657 1.7958,-2.38821 2.11675,-2.76177 l -17.45191,-31.83811 v -0.002 l -0.0362,-0.0638 -0.061,-0.11136 -8.1e-4,0.002 -9.6e-4,-0.002 -0.061,0.11136 -0.0362,0.0638 v 0.002 l -17.45199,31.83811 c 0.32098,0.37356 1.10144,1.3152 2.1169,2.76177 1.12406,1.37693 2.43252,3.20465 3.61973,5.43015 0.66372,1.24389 1.31717,2.67722 1.87176,4.27344 1.22306,2.97739 1.96682,6.11848 1.96682,9.45931 0,2.97019 -0.58694,6.40272 -1.34179,9.59064 -13.70998,-4.08413 -23.72834,-16.71927 -23.72834,-31.635 0,-6.60598 1.96543,-12.76454 5.34532,-17.93167 l -3.12223,-6.81202 c -5.34528,6.75703 -8.54229,15.29115 -8.54229,24.57533 0,20.64701 15.78004,37.60665 35.93676,39.48276 0.0754,0.007 0.15072,0.0144 0.22584,0.0192 0.21,0.0192 0.42038,0.0362 0.63122,0.0511 0.23664,0.0168 0.47357,0.0324 0.71155,0.0451 0.11376,0.007 0.22824,0.01 0.34219,0.0168 0.20208,0.01 0.40534,0.0168 0.60859,0.024 0.0989,0.002 0.19824,0.007 0.29732,0.007 0.1704,0.005 0.3412,0.005 0.51252,0.007 v 0.002 c 0.0329,0 0.065,-10e-4 0.0982,-10e-4 0.0329,0 0.065,10e-4 0.0979,10e-4 v -0.002 c 0.17088,-10e-4 0.34219,-0.002 0.51266,-0.007 0.0994,-0.002 0.19824,-0.005 0.29719,-0.007 0.20328,-0.007 0.40591,-0.0144 0.60871,-0.024 0.11448,-0.005 0.22824,-0.01 0.3422,-0.0168 0.23736,-0.012 0.47484,-0.0281 0.7114,-0.0451 0.21096,-0.0144 0.42125,-0.0329 0.63123,-0.0511 0.0754,-0.007 0.15072,-0.012 0.22584,-0.0192 20.15671,-1.87568 35.93673,-18.83532 35.93673,-39.48276 0,-9.28418 -3.19692,-17.8183 -8.54225,-24.57533 z m -30.96751,36.10862 c -6.25646,0 -11.34653,-5.09006 -11.34653,-11.34652 0,-6.25659 5.09007,-11.34651 11.34653,-11.34651 6.25658,0 11.3465,5.08992 11.3465,11.34651 0,6.25646 -5.08992,11.34652 -11.3465,11.34652 z"
       fill="#c7ff00"
       id="path871"
       style="stroke-width:1.40648" />
    <path
       d="m 227.84551,264.47876 -4.20861,3.05755 1.60718,4.9476 h 5.20243 l 1.60776,-4.9476 z"
       fill="#c7ff00"
       id="path873"
       style="stroke-width:1.40648" />
    <path
       d="m 219.58356,266.22632 -0.46245,-2.59947 c -0.74079,1.31367 -1.19355,2.81184 -1.27217,4.40791 z"
       fill="#c7ff00"
       id="path875"
       style="stroke-width:1.40648" />
    <path
       d="m 222.69708,275.943 -1.86499,-0.2664 c 0.79551,0.78132 1.72027,1.43098 2.74011,1.91312 l -0.87512,-1.64729 z"
       fill="#c7ff00"
       id="path877"
       style="stroke-width:1.40648" />
    <path
       d="m 230.57002,258.89938 c -0.86203,-0.24331 -1.77077,-0.37356 -2.71001,-0.37454 -0.005,0 -0.007,0 -0.012,0 -0.005,0 -0.007,0 -0.012,0 -0.93926,0.001 -1.84855,0.13176 -2.71001,0.37454 l 2.71001,1.27512 v 0.007 l 0.005,0.002 0.007,-0.002 0.007,0.002 0.005,-0.002 v -0.007 z"
       fill="#c7ff00"
       id="path879"
       style="stroke-width:1.40648" />
    <path
       d="m 219.99989,262.32025 0.53417,3.24923 2.40888,0.78144 3.98669,-2.90267 v -2.57487 l -3.05124,-1.53053 c -1.52758,0.66022 -2.85826,1.69018 -3.8785,2.9774 z"
       fill="#c7ff00"
       id="path881"
       style="stroke-width:1.40648" />
    <path
       d="m 219.95374,267.32535 -2.08018,2.06611 c 0.15984,1.88426 0.8408,3.61987 1.89932,5.0615 l 2.61393,0.42435 1.50833,-2.08651 -1.53096,-4.68795 z"
       fill="#c7ff00"
       id="path883"
       style="stroke-width:1.40648" />
    <path
       d="m 231.81504,275.90096 -1.48793,-2.04939 h -2.47891 -2.47879 l -1.48807,2.04939 1.12505,2.236 c 0.89719,0.26499 1.84615,0.40846 2.82885,0.40985 0.005,0 0.007,0 0.012,0 0.005,0 0.007,0 0.012,0 0.98273,-10e-4 1.9321,-0.14496 2.82886,-0.40985 l 1.12505,-2.236 z"
       fill="#c7ff00"
       id="path885"
       style="stroke-width:1.40648" />
    <path
       d="m 236.10845,266.22632 0.46231,-2.59947 c 0.74095,1.31367 1.19355,2.81184 1.27231,4.40791 z"
       fill="#c7ff00"
       id="path887"
       style="stroke-width:1.40648" />
    <path
       d="m 232.99479,275.943 1.86484,-0.26652 c -0.79536,0.78144 -1.72012,1.4311 -2.73996,1.91324 l 0.87512,-1.64729 z"
       fill="#c7ff00"
       id="path889"
       style="stroke-width:1.40648" />
    <path
       d="m 235.6927,262.32025 -0.53431,3.24923 -2.40888,0.78144 -3.98669,-2.90267 v -2.57487 l 3.05136,-1.53053 c 1.5276,0.66022 2.85811,1.69018 3.87852,2.9774 z"
       fill="#c7ff00"
       id="path891"
       style="stroke-width:1.40648" />
    <path
       d="m 235.73955,267.32535 2.08032,2.06611 c -0.15984,1.88426 -0.8408,3.61987 -1.89932,5.0615 l -2.61393,0.42435 -1.50833,-2.08651 1.53096,-4.68795 z"
       fill="#c7ff00"
       id="path893"
       style="stroke-width:1.40648" />
  </g>
</svg>
