<svg xmlns="http://www.w3.org/2000/svg" xmlns:xlink="http://www.w3.org/1999/xlink" version="1.1" id="Layer_2_00000014599833237727079960000002939462401245119154_" x="0px" y="0px" viewBox="0.0 0.0 307.1 400.0" style="enable-background:new 0 0 307.1 400;" xml:space="preserve" width="277.05887314865913" height="360.9341179495227">
<style type="text/css">
	.st0{fill:#FFFFFF;}
	.st1{fill:#283271;}
	.st2{fill:#B69B40;}
	.st3{fill:#BB1731;}
	.st4{fill:#8D8F8F;}
	.st5{fill:url(#Plinth_00000002360061264532790490000001192665141422913461_);}
	.st6{opacity:0.4;fill:url(#p40_00000142155606685619270680000008757514173026092461_);enable-background:new    ;}
	.st7{fill:url(#Sky_x5F_Logo_00000098910521574772492590000004959434437293258925_);}
	.st8{opacity:0.25;fill:url(#s25_00000177451790489601996790000002773776436670569645_);enable-background:new    ;}
</style>
<g id="Layer_1-2">
	<path class="st0" d="M153.5,400C68.9,400,0,330.1,0,244.2c0-1.1,0-182,0-220.1V0h307v24.1c0,37.8,0,218.7,0,220.1   C307.1,330.1,238.2,400,153.5,400"/>
	<path class="st1" d="M298.4,24.1V8.7H8.7v15.4c0,38.4,0,219.1,0,220.1c0,81.1,65,147.1,144.9,147.1s144.9-66,144.9-147.1   C298.4,242.8,298.4,61.6,298.4,24.1 M153.5,382.6c-75.1,0-136.2-62.1-136.2-138.4c0-2.7,0-190.6,0-226.8h272.3   c0,36.2,0,224.1,0,226.8C289.7,320.5,228.6,382.6,153.5,382.6"/>
	<path class="st1" d="M30.4,162.6c0,1.1,0.9,1.9,1.9,1.9h242.4c1,0,1.9-0.9,1.9-1.9s-0.9-1.9-1.9-1.9H32.3   C31.3,160.7,30.4,161.6,30.4,162.6"/>
	<path class="st1" d="M149.3,350.4c-3.6,0-6.6-3-6.6-6.6v-36.2h26v9.9h-15.3v6.4h13.9v10h-13.9v16.5H149.3z M109.7,343.7   c0,3.6,3,6.6,6.6,6.6h19.2v-9.9h-15.1v-6.6h13.9v-10h-13.9v-6.4h15.2v-9.9h-25.8L109.7,343.7L109.7,343.7z M199.2,350.4v-9.9h-13.3   v-33h-10.6v36.2c0,3.6,3,6.6,6.6,6.6L199.2,350.4L199.2,350.4z"/>
	<path class="st2" d="M172.4,226.4c-4.5,0-8.1,3.6-8.1,8.1s3.6,8.1,8.1,8.1s8.1-3.6,8.1-8.1S176.9,226.4,172.4,226.4"/>
	<path class="st2" d="M163.1,212.4c-4,0-7.2,3.2-7.2,7.2s3.2,7.2,7.2,7.2s7.2-3.2,7.2-7.2S167.1,212.4,163.1,212.4"/>
	<path class="st2" d="M177.5,205c-3.9,0-7.1,3.2-7.1,7.1s3.2,7.1,7.1,7.1s7.1-3.2,7.1-7.1S181.4,205,177.5,205"/>
	<path class="st2" d="M153.4,202.3c-3.3,0-6,2.7-6,6s2.7,6,6,6s6-2.7,6-6S156.7,202.3,153.4,202.3"/>
	<path class="st2" d="M142.6,197.4c-2.7,0-4.9,2.2-4.9,4.9s2.2,4.9,4.9,4.9s4.9-2.2,4.9-4.9S145.3,197.4,142.6,197.4"/>
	<path class="st2" d="M132.5,196.1c-2.2,0-3.9,1.8-3.9,3.9s1.8,3.9,3.9,3.9s3.9-1.8,3.9-3.9S134.6,196.1,132.5,196.1"/>
	<path class="st2" d="M144.9,189c-2.1,0-3.8,1.7-3.8,3.8s1.7,3.8,3.8,3.8s3.8-1.7,3.8-3.8S146.9,189,144.9,189"/>
	<path class="st2" d="M154.2,181.9c-2,0-3.7,1.6-3.7,3.7s1.6,3.7,3.7,3.7s3.7-1.6,3.7-3.7S156.3,181.9,154.2,181.9"/>
	<path class="st2" d="M146,182.4c-1.6,0-2.9,1.3-2.9,2.9s1.3,2.9,2.9,2.9s2.9-1.3,2.9-2.9S147.6,182.4,146,182.4"/>
	<path class="st2" d="M138.9,183.9c-1.5,0-2.6,1.2-2.6,2.6s1.2,2.6,2.6,2.6s2.6-1.2,2.6-2.6S140.4,183.9,138.9,183.9"/>
	<path class="st2" d="M135.6,189.7c-1.6,0-2.8,1.3-2.8,2.8s1.3,2.8,2.8,2.8s2.8-1.3,2.8-2.8S137.1,189.7,135.6,189.7"/>
	<path class="st2" d="M126.4,190.5c-1.4,0-2.6,1.2-2.6,2.6s1.2,2.6,2.6,2.6s2.6-1.2,2.6-2.6S127.9,190.5,126.4,190.5"/>
	<path class="st2" d="M130.8,186.9c-1.1,0-1.9,0.9-1.9,1.9s0.9,1.9,1.9,1.9s1.9-0.9,1.9-1.9S131.8,186.9,130.8,186.9"/>
	<path class="st2" d="M120.2,193.2c-1,0-1.8,0.8-1.8,1.8s0.8,1.8,1.8,1.8s1.8-0.8,1.8-1.8S121.2,193.2,120.2,193.2"/>
	<path class="st2" d="M123.6,196.6c-1.7,0-3.1,1.4-3.1,3.1s1.4,3.1,3.1,3.1s3.1-1.4,3.1-3.1S125.3,196.6,123.6,196.6"/>
	<path class="st2" d="M115.9,197.6c-1.3,0-2.4,1.1-2.4,2.4s1.1,2.4,2.4,2.4s2.4-1.1,2.4-2.4S117.3,197.6,115.9,197.6"/>
	<path class="st2" d="M110.9,201.9c-0.9,0-1.6,0.7-1.6,1.6s0.7,1.6,1.6,1.6s1.6-0.7,1.6-1.6S111.8,201.9,110.9,201.9"/>
	<path class="st2" d="M166,196.2c-3.3,0-5.9,2.6-5.9,5.9s2.6,5.9,5.9,5.9s5.9-2.6,5.9-5.9S169.3,196.2,166,196.2"/>
	<path class="st2" d="M187.8,217.9c-4.1,0-7.4,3.3-7.4,7.4c0,4.1,3.3,7.4,7.4,7.4s7.4-3.3,7.4-7.4S191.9,217.9,187.8,217.9"/>
	<path class="st2" d="M195.9,204.9c-3.6,0-6.4,2.9-6.4,6.4s2.9,6.4,6.4,6.4s6.4-2.9,6.4-6.4S199.5,204.9,195.9,204.9"/>
	<path class="st2" d="M186.7,194.1c-3.3,0-6,2.7-6,6s2.7,6,6,6s6-2.7,6-6S190,194.1,186.7,194.1"/>
	<path class="st2" d="M175.4,186.8c-3.1,0-5.6,2.5-5.6,5.6s2.5,5.6,5.6,5.6s5.6-2.5,5.6-5.6S178.5,186.8,175.4,186.8"/>
	<path class="st2" d="M164.2,183c-2.6,0-4.7,2.1-4.7,4.7s2.1,4.7,4.7,4.7s4.7-2.1,4.7-4.7S166.7,183,164.2,183"/>
	<path class="st2" d="M154.8,191c-2.7,0-4.9,2.2-4.9,4.9s2.2,4.9,4.9,4.9s4.9-2.2,4.9-4.9S157.5,191,154.8,191"/>
	<path class="st3" d="M156.1,257.6c0,4.5-3.6,8.1-8.1,8.1s-8.1-3.6-8.1-8.1s3.6-8.1,8.1-8.1S156.1,253.1,156.1,257.6"/>
	<path class="st3" d="M165.5,249.7c-4,0-7.2,3.2-7.2,7.2s3.2,7.2,7.2,7.2s7.2-3.2,7.2-7.2S169.5,249.7,165.5,249.7"/>
	<path class="st3" d="M164.9,266.1c-3.9,0-7.1,3.2-7.1,7.1s3.2,7.1,7.1,7.1s7.1-3.2,7.1-7.1S168.8,266.1,164.9,266.1"/>
	<path class="st3" d="M180.2,248.2c-3.3,0-6,2.7-6,6c0,3.3,2.7,6,6,6s6-2.7,6-6S183.5,248.2,180.2,248.2"/>
	<path class="st3" d="M190.8,242.9c-2.7,0-4.9,2.2-4.9,4.9s2.2,4.9,4.9,4.9s4.9-2.2,4.9-4.9S193.6,242.9,190.8,242.9"/>
	<path class="st3" d="M197.9,236.3c-2.2,0-3.9,1.8-3.9,3.9s1.8,3.9,3.9,3.9s3.9-1.8,3.9-3.9S200,236.3,197.9,236.3"/>
	<path class="st3" d="M197.9,250.8c-2.1,0-3.8,1.7-3.8,3.8s1.7,3.8,3.8,3.8s3.8-1.7,3.8-3.8S200,250.8,197.9,250.8"/>
	<path class="st3" d="M199.4,262.6c-2,0-3.7,1.6-3.7,3.7s1.6,3.7,3.7,3.7s3.7-1.6,3.7-3.7S201.4,262.6,199.4,262.6"/>
	<path class="st3" d="M203.8,256.4c-1.6,0-2.9,1.3-2.9,2.9s1.3,2.9,2.9,2.9s2.9-1.3,2.9-2.9S205.4,256.4,203.8,256.4"/>
	<path class="st3" d="M206.2,249.9c-1.5,0-2.6,1.2-2.6,2.6s1.2,2.6,2.6,2.6s2.6-1.2,2.6-2.6S207.7,249.9,206.2,249.9"/>
	<path class="st3" d="M202.8,243.8c-1.6,0-2.8,1.3-2.8,2.8s1.3,2.8,2.8,2.8s2.8-1.3,2.8-2.8S204.3,243.8,202.8,243.8"/>
	<path class="st3" d="M206.9,235.9c-1.4,0-2.6,1.2-2.6,2.6s1.2,2.6,2.6,2.6s2.6-1.2,2.6-2.6S208.3,235.9,206.9,235.9"/>
	<path class="st3" d="M208.5,242.4c-1.1,0-1.9,0.9-1.9,1.9s0.9,1.9,1.9,1.9s1.9-0.9,1.9-1.9S209.6,242.4,208.5,242.4"/>
	<path class="st3" d="M208.4,230.3c-1,0-1.8,0.8-1.8,1.8s0.8,1.8,1.8,1.8s1.8-0.8,1.8-1.8S209.4,230.3,208.4,230.3"/>
	<path class="st3" d="M202.5,229.5c-1.7,0-3.1,1.4-3.1,3.1s1.4,3.1,3.1,3.1s3.1-1.4,3.1-3.1S204.2,229.5,202.5,229.5"/>
	<path class="st3" d="M206.1,223.4c-1.4,0-2.4,1.1-2.4,2.4s1.1,2.4,2.4,2.4s2.4-1.1,2.4-2.4S207.4,223.4,206.1,223.4"/>
	<path class="st3" d="M205.6,218.1c-0.9,0-1.6,0.7-1.6,1.6s0.7,1.6,1.6,1.6s1.6-0.7,1.6-1.6S206.5,218.1,205.6,218.1"/>
	<path class="st3" d="M179.3,262.4c-3.3,0-5.9,2.6-5.9,5.9s2.6,5.9,5.9,5.9s5.9-2.6,5.9-5.9S182.5,262.4,179.3,262.4"/>
	<path class="st3" d="M148.2,268c-4.1,0-7.4,3.3-7.4,7.4s3.3,7.4,7.4,7.4s7.4-3.3,7.4-7.4S152.3,268,148.2,268"/>
	<path class="st3" d="M156.3,283c-3.6,0-6.4,2.9-6.4,6.5s2.9,6.5,6.4,6.5s6.4-2.9,6.4-6.5S159.8,283,156.3,283"/>
	<path class="st3" d="M170.6,281.1c-3.3,0-6,2.7-6,6s2.7,6,6,6s6-2.7,6-6S173.9,281.1,170.6,281.1"/>
	<path class="st3" d="M183,275.6c-3.1,0-5.6,2.5-5.6,5.6s2.5,5.6,5.6,5.6s5.6-2.5,5.6-5.6S186.1,275.6,183,275.6"/>
	<path class="st3" d="M192.7,269.2c-2.6,0-4.7,2.1-4.7,4.7s2.1,4.7,4.7,4.7s4.7-2.1,4.7-4.7S195.2,269.2,192.7,269.2"/>
	<path class="st3" d="M190.3,256.8c-2.7,0-4.9,2.2-4.9,4.9s2.2,4.9,4.9,4.9s4.9-2.2,4.9-4.9S193,256.8,190.3,256.8"/>
	<path class="st4" d="M140.2,216.8c-4.5,0-8.1,3.6-8.1,8.1s3.6,8.1,8.1,8.1s8.1-3.6,8.1-8.1S144.7,216.8,140.2,216.8 M132,233.2   c-4,0-7.2,3.2-7.2,7.2s3.2,7.2,7.2,7.2s7.2-3.2,7.2-7.2S136,233.2,132,233.2 M118.2,224.7c-3.9,0-7.1,3.2-7.1,7.1s3.2,7.1,7.1,7.1   c3.9,0,7.1-3.2,7.1-7.1S122.1,224.7,118.2,224.7 M127.1,248.5c-3.3,0-6,2.7-6,6c0,3.3,2.7,6,6,6s6-2.7,6-6S130.4,248.5,127.1,248.5    M127.3,261.9c-2.7,0-4.9,2.2-4.9,5c0,2.7,2.2,5,4.9,5c2.7,0,4.9-2.2,4.9-5S130,261.9,127.3,261.9 M130.3,272.8   c-2.2,0-3.9,1.8-3.9,3.9s1.8,3.9,3.9,3.9s3.9-1.8,3.9-3.9S132.5,272.8,130.3,272.8 M117.9,265.9c-2.1,0-3.8,1.7-3.8,3.8   s1.7,3.8,3.8,3.8s3.8-1.7,3.8-3.8S120,265.9,117.9,265.9 M107,261.4c-2,0-3.7,1.6-3.7,3.7s1.7,3.7,3.7,3.7s3.7-1.6,3.7-3.7   S109,261.4,107,261.4 M110.9,269.4c-1.6,0-2.9,1.3-2.9,2.9s1.3,2.9,2.9,2.9s2.9-1.3,2.9-2.9C113.8,270.7,112.5,269.4,110.9,269.4    M115.5,275.2c-1.5,0-2.6,1.2-2.6,2.6s1.2,2.6,2.6,2.6s2.6-1.2,2.6-2.6S117,275.2,115.5,275.2 M122.3,274.9c-1.6,0-2.8,1.3-2.8,2.8   s1.3,2.8,2.8,2.8s2.8-1.3,2.8-2.8S123.9,274.9,122.3,274.9 M127.3,282.8c-1.4,0-2.6,1.2-2.6,2.6s1.2,2.6,2.6,2.6s2.6-1.2,2.6-2.6   S128.8,282.8,127.3,282.8 M121.5,281.9c-1.1,0-1.9,0.9-1.9,2s0.9,1.9,1.9,1.9s1.9-0.9,1.9-1.9S122.6,281.9,121.5,281.9    M132.1,288.1c-1,0-1.8,0.8-1.8,1.8s0.8,1.8,1.8,1.8s1.8-0.8,1.8-1.8S133.1,288.1,132.1,288.1 M134.6,281.4c-1.7,0-3.1,1.4-3.1,3.1   s1.4,3.1,3.1,3.1s3.1-1.4,3.1-3.1S136.3,281.4,134.6,281.4 M138.6,288.6c-1.4,0-2.4,1.1-2.4,2.4s1.1,2.4,2.4,2.4   c1.3,0,2.4-1.1,2.4-2.4S139.9,288.6,138.6,288.6 M144.2,292c-0.9,0-1.6,0.7-1.6,1.6s0.7,1.6,1.6,1.6s1.6-0.7,1.6-1.6   S145.1,292,144.2,292 M115.3,240.8c-3.3,0-5.9,2.6-5.9,5.9s2.6,5.9,5.9,5.9s5.9-2.6,5.9-5.9S118.6,240.8,115.3,240.8 M124.6,208.7   c-4.1,0-7.4,3.3-7.4,7.4s3.3,7.4,7.4,7.4s7.4-3.3,7.4-7.4S128.7,208.7,124.6,208.7 M108.4,209.7c-3.6,0-6.4,2.9-6.4,6.4   s2.9,6.4,6.4,6.4s6.4-2.9,6.4-6.4S112,209.7,108.4,209.7 M103.3,223.7c-3.3,0-6,2.7-6,6s2.7,6,6,6s6-2.7,6-6   S106.6,223.7,103.3,223.7 M102.3,237.8c-3.1,0-5.6,2.5-5.6,5.6s2.5,5.6,5.6,5.6s5.6-2.5,5.6-5.6S105.3,237.8,102.3,237.8    M103.8,250.8c-2.6,0-4.7,2.1-4.7,4.7c0,2.6,2.1,4.7,4.7,4.7s4.7-2.1,4.7-4.7S106.4,250.8,103.8,250.8 M115.6,254.6   c-2.7,0-4.9,2.2-4.9,4.9s2.2,4.9,4.9,4.9s4.9-2.2,4.9-4.9S118.3,254.6,115.6,254.6"/>
	<path class="st1" d="M59.5,126.9v0.5c0,4.1-1.1,7.2-3.5,9c-2,1.6-5,2.5-9,2.5h-3.4v11.8c0,0.6-0.3,0.8-0.9,0.8H42   c-3.5,0-5.5-1.8-5.5-5.8v-28.8c0-0.7,0.2-0.9,1-0.9H47c4.4,0,7.2,0.7,9.1,2.2C58.2,119.7,59.5,122.3,59.5,126.9 M52.2,126.9   c0-2.1-0.5-3.4-1.4-4.2c-1-0.9-2.2-1.1-4.7-1.1h-2.6v11.5h2.3c2.8,0,4.1-0.3,5.1-1.2c0.9-0.8,1.3-2.2,1.3-4.7V126.9z"/>
	<path class="st1" d="M84.9,146.7l-0.7,3.6c-0.2,0.9-0.6,1.1-1.4,1.1H70.5c-3.5,0-5.5-1.8-5.5-5.8v-28.7c0-0.8,0.4-1,1.4-1h4.3   c1,0,1.4,0.2,1.4,1v28.7H84C84.7,145.6,85.1,145.8,84.9,146.7"/>
	<path class="st1" d="M87.4,150.5c3.1-12.1,6.2-23.9,9.2-33.3c0.3-0.9,0.9-1.3,2-1.3h5.9c1.3,0,1.7,0.4,2,1.3   c3,9.4,6.1,21.2,9.3,33.3c0.1,0.6-0.1,0.8-0.8,0.8h-5.3c-0.7,0-1.2-0.3-1.3-0.8l-1.4-6.2H96.2c-0.5,2.1-0.9,4.1-1.4,6.3   c-0.1,0.4-0.5,0.7-1.1,0.7h-5.6C87.4,151.4,87.2,151.1,87.4,150.5 M105.8,138.9c-1-5.3-2.6-11.7-4.1-17.1h-0.3   c-1.4,5.4-3,11.8-4,17.1H105.8z"/>
	<path class="st1" d="M142.8,116.8c-2.6,7.4-5.8,14.8-9.7,22.3v11.5c0,0.6-0.3,0.8-0.9,0.8h-0.8c-3.5,0-5.5-1.8-5.5-5.8v-6.5   c-3.8-7.6-7-14.9-9.5-22.3c-0.1-0.4,0.1-0.8,0.6-0.8h5.3c0.7,0,1,0.2,1.1,0.8c1.6,4.8,3.9,11.3,5.9,16.3h0.3c2-5,4.3-11.5,5.8-16.3   c0.2-0.6,0.6-0.8,1.3-0.8h5.3C142.8,116,143,116.3,142.8,116.8"/>
	<path class="st1" d="M168.6,148.9c-2.2-2-3.5-4.9-3.5-8.8v-12.8c0-4.5,1.7-7.7,4.6-9.6c2.2-1.5,5.1-2.2,8.5-2.2s6.6,0.8,8.8,2.4   c2.7,1.9,4.3,5.1,4.3,9.4v12.8c0,4.3-1.5,7.5-4.2,9.4c-2.2,1.6-5.2,2.4-8.8,2.4C174.2,151.9,170.9,150.9,168.6,148.9 M182.4,144.6   c1.1-1.1,1.7-3,1.7-5.3V128c0-2.6-0.6-4.2-1.7-5.3c-0.9-0.9-2.4-1.4-4.2-1.4s-3.3,0.5-4.2,1.4c-1.1,1.1-1.7,2.7-1.7,5.3v11.3   c0,2.3,0.6,4.2,1.7,5.3c0.9,0.9,2.5,1.4,4.2,1.4S181.5,145.5,182.4,144.6"/>
	<path class="st1" d="M219,116.8l-0.6,4.2c-0.1,0.6-0.5,0.8-1,0.8h-11.8v8.9h11.2c0.5,0,0.9,0.2,0.8,0.8l-0.5,4.2   c0,0.5-0.4,0.7-0.8,0.7h-10.7v14.3c0,0.6-0.3,0.8-0.9,0.8H204c-3.5,0-5.5-1.8-5.5-5.8v-28.8c0-0.5,0.3-0.9,0.9-0.9h18.7   C218.7,116,219,116.3,219,116.8"/>
	<path class="st1" d="M244.8,116.8l-0.6,4.2c-0.1,0.6-0.4,0.8-1,0.8h-11.8v8.9h11.2c0.5,0,0.9,0.2,0.8,0.8l-0.5,4.2   c0,0.5-0.4,0.7-0.8,0.7h-10.7v14.3c0,0.6-0.3,0.8-0.9,0.8h-0.8c-3.5,0-5.5-1.8-5.5-5.8v-28.8c0-0.5,0.3-0.9,0.9-0.9h18.7   C244.5,116,244.8,116.3,244.8,116.8"/>
	<path class="st1" d="M251.3,150.8c-0.8-0.3-1-0.6-1.1-1.2l-0.9-4.6c-0.1-0.6,0.4-0.9,1.1-0.6c1.8,0.8,5,1.6,7.6,1.6   c4,0,6-1.6,6-4.3v-0.2c0-2.5-1.1-4-4.6-5.2l-2.2-0.8c-4.6-1.6-7.5-4.8-7.5-10v-0.3c0-6.5,5-9.7,12.1-9.7c2.1,0,4.5,0.4,6.2,0.9   c0.8,0.3,0.9,0.6,0.9,1.3v3.6c0,0.8-0.5,0.9-1.4,0.8c-1.6-0.4-3.5-0.6-5.5-0.6c-3.2,0-5.3,1-5.3,3.9v0.2c0,2.5,1.1,3.8,3.9,4.8   l2.4,0.9c5.5,2,7.8,4.9,7.8,9.9v0.4c0,6.3-4.5,10.4-12.2,10.4C256.4,151.9,253.3,151.4,251.3,150.8"/>
	<path class="st1" d="M155.8,132.2h-8.4c-1.7,0-3,1.4-3,3s1.4,3,3,3h8.4c1.7,0,3-1.4,3-3S157.5,132.2,155.8,132.2"/>
</g>
<g>
	
		<linearGradient id="Plinth_00000121958268733055894740000010687636847143355061_" gradientUnits="userSpaceOnUse" x1="211.5749" y1="179.918" x2="211.5749" y2="107.1789" gradientTransform="matrix(1 0 0 -1 0 210)">
		<stop offset="0.4" style="stop-color:#FF0000"/>
		<stop offset="1" style="stop-color:#D42321"/>
	</linearGradient>
	<path id="Plinth" style="fill:url(#Plinth_00000121958268733055894740000010687636847143355061_);" d="M271.7,30.1H151.4   c-2.7,0-4.9,2.2-4.9,4.9v63c0,2.7,2.2,4.9,4.9,4.9h120.3c2.7,0,4.9-2.2,4.9-4.9V34.9C276.5,32.2,274.4,30.1,271.7,30.1z"/>
	
		<linearGradient id="p40_00000007395595975730818500000008645296918411169210_" gradientUnits="userSpaceOnUse" x1="211.9754" y1="144.8895" x2="210.7114" y2="181.089" gradientTransform="matrix(1 0 0 -1 0 210)">
		<stop offset="0" style="stop-color:#FFFFFF"/>
		<stop offset="1" style="stop-color:#FFFFFF;stop-opacity:0.25"/>
	</linearGradient>
	
		<path id="p40" style="opacity:0.4;fill:url(#p40_00000007395595975730818500000008645296918411169210_);enable-background:new    ;" d="   M150,66.1c0,0,0.2,0,0.5,0c14.3-0.5,122.5-4.2,122.5-4.2c1.8-0.1,3.6-1.5,3.6-3.7V34.9c0-2.7-2.2-4.9-4.9-4.9H151.4   c-2.7,0-4.9,2.2-4.9,4.9v35C146.6,69.5,146.7,66.5,150,66.1z"/>
	
		<linearGradient id="Sky_x5F_Logo_00000014597699090315278640000000157411503563522979_" gradientUnits="userSpaceOnUse" x1="83.0847" y1="175.7746" x2="83.0847" y2="111.4103" gradientTransform="matrix(1 0 0 -1 0 210)">
		<stop offset="0" style="stop-color:#002A91"/>
		<stop offset="0.8" style="stop-color:#002672"/>
	</linearGradient>
	<path id="Sky_x5F_Logo" style="fill:url(#Sky_x5F_Logo_00000014597699090315278640000000157411503563522979_);" d="M103.1,97.6   c0.8,0.5,2.7,1,4.9,1c3.8,0.1,5.9-1.4,7.4-4.8l20.3-45.3c-0.8-0.5-2.7-0.9-4.2-1c-2.7,0-6.2,0.5-8.4,5.8l-6.6,15.6l-12.9-21   c-0.8-0.3-2.9-0.6-4.3-0.6c-4.6,0-7.2,1.7-9.8,4.5L76.9,65.4L87,81.4c1.8,2.9,4.3,4.4,8.3,4.4c2.7,0,4.8-0.6,5.8-1.1L89,66.4   l8.7-9.1l14.2,22.2L103.1,97.6z M76.4,80.4c0,3.4-1.3,5.2-7.8,5.2c-0.8,0-1.6,0-2.3-0.2V41.1c0-3.4,1.1-6.9,7.7-6.9   c0.8,0,1.7,0.1,2.5,0.3L76.4,80.4L76.4,80.4z M62.9,73.6c0,6.3-4.1,10.8-12.4,11.7c-6,0.6-14.6-0.1-18.8-0.6   c-0.1-0.6-0.3-1.5-0.3-2.2c0-5.4,2.9-6.7,5.7-6.7c2.9,0,7.4,0.5,10.8,0.5c3.8,0,4.9-1.3,4.9-2.5c0-1.6-1.5-2.2-4.3-2.8l-7.9-1.5   c-6.6-1.1-10-5.7-10-10.5c0-5.8,4.1-10.7,12.2-11.6c6.2-0.6,13.6,0.1,17.7,0.6c0.1,0.7,0.2,1.4,0.2,2.1c0,5.4-2.9,6.6-5.6,6.6   c-2.1,0-5.4-0.4-9.2-0.4s-5.4,1.1-5.4,2.3c0,1.4,1.5,1.9,3.9,2.3l7.6,1.4C59.6,63.9,62.9,68.3,62.9,73.6z"/>
	
		<linearGradient id="s25_00000064334826692424740460000007381907272727539590_" gradientUnits="userSpaceOnUse" x1="83.6809" y1="141.686" x2="82.8307" y2="166.0314" gradientTransform="matrix(1 0 0 -1 0 210)">
		<stop offset="0" style="stop-color:#FFFFFF"/>
		<stop offset="1" style="stop-color:#FFFFFF;stop-opacity:0.25"/>
	</linearGradient>
	
		<path id="s25_11_" style="opacity:0.25;fill:url(#s25_00000064334826692424740460000007381907272727539590_);enable-background:new    ;" d="   M135.8,48.4L128.3,65c-0.2,0.5-1.1,1.8-3.1,1.9c-0.5,0-6.8,0.3-6.8,0.3c-1.2,0-1.7,1.2-1.7,1.2l0,0l6.4-15.2   c2.2-5.3,5.7-5.9,8.4-5.8C133,47.5,134.8,47.9,135.8,48.4z M116.1,68.3l-12.6-20.4c-0.8-0.3-2.9-0.6-4.3-0.6   c-4.6,0-7.2,1.7-9.8,4.5L76.8,65.4l1,1.6c0.4,0.6,1.3,1.6,3,1.5c0.6,0,6.7-0.3,7.2-0.3c1.6,0,2.6,0.6,3.1,1.5l0,0L89,66.3l8.7-9.1   l5.8,9.1l0,0c1.1,1.4,2.7,1.4,2.9,1.4s7.9-0.3,8.3-0.3C115.1,67.4,115.7,67.6,116.1,68.3z M74,34.2c-6.6,0-7.7,3.5-7.7,6.9v30.4   c0-1.2,0.9-2.5,2.5-2.6c1.1,0,4.1-0.2,5.1-0.2c1,0,2.6-0.7,2.6-2.6V34.5C75.6,34.3,74.8,34.2,74,34.2z M51.9,62.5l-7.6-1.4   c-2.4-0.4-3.9-1-3.9-2.3s1.6-2.3,5.4-2.3c3.8,0,7.1,0.4,9.2,0.4c2.8,0,5.6-1.2,5.6-6.6c0-0.7-0.1-1.4-0.2-2.1   c-4.1-0.5-11.6-1.3-17.7-0.6c-8.1,0.9-12.2,5.8-12.2,11.6c0,3,1.4,5.9,4,7.9c1.9,1.3,4,1.8,6,2.2c1.7,0.3,5.5,0.6,8.4,0.5   c0.9,0,7.6-0.3,9-0.4c3.4-0.1,5.2,2.8,5,5.6v-0.1l0,0c0-0.4,0-0.7,0-1.1C62.9,68.3,59.6,63.9,51.9,62.5z"/>
	<path class="st0" d="M196.3,66.8c0,11.2-7.8,17.9-16.5,17.9c-5.2,0-9.4-2.4-11.9-5.9v3.3c0,1.5-0.7,2.2-3.1,2.2   c-1,0-2.1-0.2-2.7-0.3V39.7c0-1.4,0.7-2.2,3.1-2.2c1,0,2.1,0.2,2.7,0.3v17.2c2.5-3.4,6.7-5.9,11.9-5.9   C188.5,49,196.3,55.7,196.3,66.8z M190.4,66.8c0-7.6-5-12.6-11.7-12.6c-4.5,0-8.7,2.7-10.7,6.4V73c1.9,3.9,6.2,6.4,10.7,6.4   C185.4,79.5,190.4,74.4,190.4,66.8z M234.4,68.9h-26.5c0.7,6.6,5.3,10.3,12.2,10.3c2.9,0,5.2-0.6,7.4-1.3c1.5-0.5,2.1-0.7,2.7-0.7   c1.7,0,2.7,1.4,2.4,4.5c-3,1.4-7.8,2.9-12.7,2.9c-10.7,0-18-7.2-18-18c0-10.2,7.6-17.7,16.9-17.7c10.5,0,15.7,8.2,15.7,16.5   C234.6,66.5,234.5,67.7,234.4,68.9z M207.8,64.4h21.1c-0.2-5.9-4-10.4-10-10.4C213.6,53.9,208.8,57.6,207.8,64.4z M262.4,82.3   c-3,1.5-6.4,2.3-9.9,2.3c-6.7,0-10.9-4-10.9-10.6V44.5c0-1.5,0.8-2.5,3.1-2.5c1,0,2.1,0.2,2.7,0.4v7.5h13.4   c0.1,0.5,0.2,1.5,0.2,2.3c0,2.1-0.8,2.8-2.1,2.8h-11.4v18.6c0,4,1.8,5.9,5.6,5.9c3.4,0,5.3-1.5,7-1.5   C261.9,78,262.7,79.4,262.4,82.3z"/>
</g>
</svg>