<?xml version="1.0" encoding="UTF-8"?>
<svg width="874.26" height="196.69" version="1.2" viewBox="0 0 655.69 147.52" xmlns="http://www.w3.org/2000/svg" xmlns:cc="http://creativecommons.org/ns#" xmlns:dc="http://purl.org/dc/elements/1.1/" xmlns:rdf="http://www.w3.org/1999/02/22-rdf-syntax-ns#" xmlns:xlink="http://www.w3.org/1999/xlink">
 <metadata>
  <rdf:RDF>
   <cc:Work rdf:about="">
    <dc:format>image/svg+xml</dc:format>
    <dc:type rdf:resource="http://purl.org/dc/dcmitype/StillImage"/>
    <dc:title/>
   </cc:Work>
  </rdf:RDF>
 </metadata>
 <defs>
  <symbol id="glyph0-15" overflow="visible"></symbol>
 </defs>
 <g transform="matrix(2.8959 0 0 2.8959 -890.37 -705.72)" stroke-width=".34531">
  <path d="m524.63 278.97c-3.9531-0.96485-4.4336-1.4453-4.4336-2.543 0-1.0312 1.1016-1.7891 3.1289-1.7891 2.4414 0 4.3672 0.82422 5.6367 1.7188 1.4102-0.82421 2.2695-2.5781 2.3711-4.1602-1.3047-1.0312-3.8477-2.2656-7.6641-2.2656-5.0859 0-8.457 2.7148-8.457 6.9414 0.0351 4.4336 3.3008 5.8789 7.0117 6.7695 3.8867 0.99609 4.4336 1.6523 4.4336 2.7852 0 1.2031-0.96094 1.9922-3.4336 1.9922-2.582 0-4.8828-0.92578-6.3242-2.0938-1.2734 0.78907-2.1992 2.3008-2.3711 4.0898 1.4062 1.2344 4.1562 2.7148 8.5898 2.7148 5.293 0 8.6289-2.6484 8.5234-7.4258-0.0664-3.9531-2.8867-5.7031-7.0117-6.7344m-21.961 9.0391v-4.4336h8.4219c0.16797-0.75781 0.23828-1.4805 0.23828-2.2344 0-0.75781-0.0703-1.5117-0.23828-2.2695h-8.4219v-3.9844h9.4492c0.20703-0.75781 0.27734-1.5156 0.27734-2.2695 0-0.75781-0.0703-1.582-0.27734-2.3047h-14.57v22.066h14.914c0.17187-0.75781 0.24218-1.5469 0.24218-2.3047 0-0.7539-0.0703-1.5117-0.24218-2.2656zm-17.43-7.2539c-0.85937 0-1.7891 0-2.7148-0.0312v-6.1562c0.89062-0.0664 1.7539-0.10156 2.6797-0.10156 2.543 0 3.7812 1.168 3.7812 3.0586 0 1.7891-1.0664 3.2305-3.7461 3.2305m8.9688-3.5391c0-4.2969-2.75-7.0781-9.418-7.0781-2.4375 0-5.2578 0.27344-7.4219 0.71875v21.723c0.92578 0.17188 1.7539 0.20703 2.6133 0.20703 0.85547 0 1.7148-0.0351 2.543-0.20703v-7.6289c0.85937 0.0312 1.7188 0.0312 2.5078 0.0312h0.24219l4.5352 7.7344c0.37891 0.0352 0.85938 0.0352 1.3047 0.0352 1.5117 0 3.1992-0.10547 4.332-0.41016l-5.1562-8.4922c2.3711-1.2383 3.918-3.4375 3.918-6.6328m-30.242 11.137c-3.6445 0-6.0156-2.7148-6.0156-6.8398 0-4.2266 2.3711-6.875 6.0156-6.875 3.6406 0 6.0117 2.6484 6.0117 6.875 0 4.125-2.3711 6.8398-6.0117 6.8398m0-18.559c-6.7383 0-11.586 4.8086-11.586 11.719 0 7.0117 4.8476 11.684 11.586 11.684 6.7344 0 11.578-4.8438 11.578-11.684 0-7.082-4.8438-11.719-11.578-11.719m-25.676 18.422c-0.82422 0-1.582-0.0352-2.3359-0.0703v-13.199c0.78907-0.0664 1.5117-0.0664 2.1992-0.0664 4.3984 0 6.7695 2.543 6.7695 6.4961 0 4.1562-2.4062 6.8398-6.6328 6.8398m-0.3789-18.148c-3.1602 0-5.3281 0.23828-7.1133 0.55078v21.926c2.0274 0.27344 4.125 0.44532 7.2188 0.44532 7.5586 0 12.543-4.4297 12.543-11.684 0-6.7383-4.5039-11.238-12.648-11.238m-19.625 0.23828c-0.85938 0-1.7891 0.0352-2.6445 0.20703l-8.25 21.828c0.75391 0.27344 1.7188 0.375 2.7148 0.375 0.7539 0 1.582-0.0312 2.3359-0.13672l5.0195-13.715 0.61718-2.1289 0.6875 2.1289 1.8555 5.0898h-3.1719s-0.51953 0.78125-0.9375 2.1523c-0.39063 1.293-0.4336 2.1094-0.4336 2.1094h6.125l1.582 4.3633c0.58203 0.10547 1.2695 0.17188 1.8906 0.17188 1.1328 0 2.2344-0.17188 3.2969-0.41016l-8.1797-21.828c-0.85938-0.17187-1.6133-0.20703-2.5078-0.20703m-7.6328 2.4766c0-0.75391-0.0703-1.5117-0.27734-2.2695h-17.664c-0.17188 0.75782-0.24219 1.5156-0.24219 2.3047 0 0.71875 0.0703 1.5117 0.24219 2.2695h6.2891v17.492c0.85937 0.17188 1.6836 0.23828 2.543 0.23828 0.85937 0 1.7188-0.0664 2.5781-0.23828v-17.492h6.2539c0.20703-0.79297 0.27734-1.5508 0.27734-2.3047m-28.398 7.9726c-0.85547 0-1.7852 0-2.7148-0.0312v-6.1562c0.89453-0.0664 1.7539-0.10156 2.6797-0.10156 2.5469 0 3.7812 1.168 3.7812 3.0586 0 1.7891-1.0625 3.2305-3.7461 3.2305m8.9726-3.5391c0-4.2969-2.75-7.0781-9.418-7.0781-2.4414 0-5.2578 0.27344-7.4219 0.71875v21.723c0.92578 0.17188 1.75 0.20703 2.6094 0.20703 0.85938 0 1.7188-0.0351 2.543-0.20703v-7.6289c0.86328 0.0312 1.7188 0.0312 2.5078 0.0312h0.24219l4.5391 7.7344c0.37891 0.0352 0.85547 0.0352 1.3047 0.0352 1.5117 0 3.1953-0.10547 4.332-0.41016l-5.1562-8.4922c2.3711-1.2383 3.918-3.4375 3.918-6.6328m-30.211 10.793v-4.4336h8.4219c0.17187-0.75781 0.24219-1.4805 0.24219-2.2344 0-0.75781-0.0703-1.5117-0.24219-2.2695h-8.4219v-3.9844h9.4531c0.20703-0.75781 0.27734-1.5156 0.27734-2.2695 0-0.75781-0.0703-1.582-0.27734-2.3047h-14.57v22.066h14.914c0.17187-0.75781 0.23828-1.5469 0.23828-2.3047 0-0.7539-0.0664-1.5117-0.23828-2.2656zm-16.266 1.0664c-0.96094 0-1.8203-0.0351-2.6797-0.10546v-5.5312h2.8867c2.4727 0 3.6758 1.0273 3.6758 2.7461 0 1.9258-1.168 2.8906-3.8828 2.8906m-2.6797-14.645c0.85938-0.0664 1.6836-0.10156 2.4062-0.10156 2.2656 0 3.3672 0.92969 3.3672 2.4414 0 1.7188-0.85938 2.6445-3.1641 2.6445h-2.6094zm7.9375 6.875c1.7188-0.7539 2.8516-2.1641 2.8516-4.7773 0-3.918-2.4726-6.3242-8.7617-6.3242-2.5781 0-5.1562 0.27344-7.1484 0.6875v21.688c1.9922 0.37891 4.5352 0.61719 7.2852 0.61719 6.7695 0 9.5898-2.6445 9.5898-6.7344 0-2.6836-1.5117-4.332-3.8164-5.1562m-22.094-10.758v22.031c0.89063 0.13672 1.75 0.20703 2.6133 0.20703 0.85547 0 1.6797-0.0703 2.5078-0.20703v-22.031c-0.92969-0.17187-1.7539-0.20703-2.6133-0.20703-0.85937 0-1.6836 0.0352-2.5078 0.20703m-12.648 17.426v-17.461c-0.85937-0.13671-1.7188-0.23828-2.5781-0.23828-0.85938 0-1.6836 0.10157-2.543 0.23828v22.066h14.195c0.17188-0.75781 0.24219-1.5469 0.24219-2.3047 0-0.7539-0.0703-1.5117-0.24219-2.3008z"/>
  <path d="m379.29 252.57h-4.3945c-0.11328 0-0.20312 0.0898-0.20312 0.19922v2.125c0 0.10938 0.0898 0.19922 0.20312 0.19922h4.3945c0.11328 0 0.20312-0.0898 0.20312-0.19922v-2.125c0-0.10937-0.0898-0.19922-0.20312-0.19922m87.617 0h-4.3984c-0.11329 0-0.20313 0.0898-0.20313 0.19922v2.125c0 0.10938 0.0898 0.19922 0.20313 0.19922h4.3984c0.10938 0 0.19922-0.0898 0.19922-0.19922v-2.125c0-0.10937-0.0898-0.19922-0.19922-0.19922m-7.25 6.5625h-4.0117c-0.0742 0-0.13281-0.0625-0.13281-0.13672v-12.777c0-0.11328-0.0898-0.20313-0.19922-0.20313h-2.1211c-0.10938 0-0.19922 0.0898-0.19922 0.20313l-4e-3 15.234c0 0.10938 0.0899 0.19922 0.20313 0.19922h6.4648c0.10938 0 0.19922-0.0898 0.19922-0.19922v-2.1211c0-0.10937-0.0898-0.19922-0.19922-0.19922m-10.926-1.2578c0 0.48047-0.1289 0.83203-0.38281 1.0469-0.26563 0.22657-0.57422 0.33985-0.9375 0.33985s-0.66797-0.11328-0.93359-0.33985c-0.25391-0.21484-0.38282-0.5664-0.38282-1.0469v-8.082c0-0.48438 0.125-0.82813 0.38282-1.0469 0.26562-0.22656 0.57031-0.33593 0.93359-0.33593 0.36719 0 0.67187 0.10937 0.9375 0.33593 0.25391 0.21485 0.38281 0.57032 0.38281 1.0469zm1.293-11.012c-0.36328-0.32031-0.77734-0.56641-1.2344-0.73047-0.90625-0.32812-1.8477-0.32812-2.7539 0-0.45703 0.16406-0.87109 0.41016-1.2344 0.73047-0.37109 0.32422-0.66796 0.73438-0.89453 1.2266-0.21875 0.49219-0.33593 1.0625-0.33593 1.7031v8.082c0 0.65234 0.11328 1.2305 0.33593 1.7148 0.22657 0.48438 0.52344 0.89453 0.89063 1.2148 0.36719 0.32031 0.78125 0.5664 1.2344 0.73047 0.45313 0.16406 0.91797 0.24609 1.3789 0.24609s0.92578-0.082 1.3789-0.24609c0.45703-0.16407 0.87109-0.41016 1.2344-0.73047 0.36719-0.32032 0.66797-0.73047 0.89063-1.2148 0.22265-0.48437 0.33593-1.0625 0.33593-1.7148v-8.082c0-0.63672-0.10937-1.2109-0.33203-1.7031-0.22656-0.49218-0.52344-0.90234-0.89453-1.2266m-10.918 4.9531c-0.21875 0.3164-0.66797 0.47656-1.3359 0.47656h-0.69531c-0.0742 0-0.13281-0.0586-0.13281-0.13281v-3.6172c0-0.0742 0.0586-0.13672 0.13281-0.13672h0.60547c0.67578 0 1.1445 0.15625 1.3906 0.45703 0.25 0.3125 0.3789 0.79688 0.3789 1.4453 0 0.66407-0.11328 1.1719-0.34375 1.5078m0.30469 5.9141c-0.0273 0.29297-0.10156 0.54297-0.21875 0.7539-0.11328 0.20313-0.27734 0.35547-0.5 0.47266-0.22656 0.11328-0.55469 0.17188-0.96875 0.17188h-0.64844c-0.0742 0-0.13281-0.0586-0.13281-0.13282v-4.3047c0-0.0742 0.0586-0.13282 0.13281-0.13282h0.67188c0.375 0 0.67968 0.0469 0.90234 0.13672 0.21484 0.0898 0.37891 0.21485 0.5 0.38281 0.12109 0.17188 0.19922 0.39063 0.23828 0.65235 0.043 0.27344 0.0625 0.60547 0.0625 0.98437 0 0.36719-0.0117 0.70703-0.0391 1.0156m1.5117-10.477c-0.33203-0.375-0.75781-0.67969-1.2734-0.90235-0.51172-0.22265-1.1367-0.33594-1.8594-0.33594h-3.168c-0.11328 0-0.19922 0.0898-0.19922 0.19922l-4e-3 15.238c0 0.10938 0.0899 0.19922 0.19922 0.19922h2.957c1.4727 0 2.5664-0.3789 3.2461-1.1289 0.67968-0.7461 1.0234-1.8242 1.0234-3.207v-0.85938c0-0.82422-0.1289-1.4961-0.38281-2-0.21875-0.42578-0.53906-0.76953-0.96094-1.0234 0.15625-0.10156 0.30078-0.21093 0.42969-0.32422 0.19531-0.17578 0.36719-0.38281 0.50391-0.60937 0.13672-0.23047 0.24218-0.5 0.30859-0.80078 0.0703-0.29688 0.10156-0.66406 0.10156-1.0898v-0.55859c0-0.51562-0.0703-1.0195-0.21093-1.5-0.14063-0.48437-0.38282-0.92187-0.71094-1.2969m-8.4375-1.2383h-6.4648c-0.10937 0-0.19921 0.0898-0.19921 0.19922v15.238c0 0.10938 0.0859 0.19922 0.19921 0.19922h6.4648c0.10937 0 0.19922-0.0898 0.19922-0.19922v-2.125c0-0.10937-0.0899-0.19921-0.19922-0.19921h-4.0117c-0.0742 0-0.13281-0.0586-0.13281-0.13282v-3.8984c0-0.0742 0.0625-0.13282 0.13281-0.13282h3.4531c0.10938 0 0.19922-0.0898 0.19922-0.19922v-1.9922c0-0.11328-0.0898-0.20313-0.19922-0.20313h-3.4531c-0.0703 0-0.13281-0.0586-0.13281-0.13281v-3.8984c0-0.0703 0.0625-0.13281 0.13281-0.13281h4.0117c0.10937 0 0.19922-0.0898 0.19922-0.19922v-1.9922c0-0.10937-0.0899-0.19922-0.19922-0.19922m-9.1133 0h-2.0703c-0.0859 0-0.16015 0.0547-0.1875 0.13282l-2.5273 7.332c-0.043 0.11719-0.21094 0.12109-0.25391 0l-2.5469-7.332c-0.0273-0.082-0.10156-0.13282-0.1875-0.13282h-2.0469c-0.10937 0-0.19921 0.0859-0.19921 0.19922v15.238c0 0.10938 0.0898 0.19532 0.19921 0.19532h2.1211c0.10937 0 0.19922-0.0859 0.19922-0.19532v-7.5391c0-0.15234 0.21484-0.1875 0.26172-0.043l1.6172 4.957c0.0195 0.0547 0.0703 0.0937 0.12891 0.0937h1.1406c0.0586 0 0.10938-0.0391 0.12891-0.0937l1.6406-4.9726c0.0469-0.14453 0.25781-0.10938 0.25781 0.043v7.5547c0 0.10938 0.0898 0.19922 0.19922 0.19922h2.1211c0.11328 0 0.20313-0.0898 0.20313-0.19922v-15.238c0-0.10937-0.0899-0.19922-0.19922-0.19922m-12.469-4e-3h-2.1211c-0.11328 0-0.19922 0.0898-0.19922 0.20312l-4e-3 7.5977c0 0.14844-0.20703 0.18359-0.25781 0.043l-2.7656-7.7109c-0.0312-0.0781-0.10547-0.13281-0.1875-0.13281h-2.0469c-0.11329 0-0.20313 0.0898-0.20313 0.20312v15.234c0 0.11328 0.0898 0.19922 0.19922 0.19922h2.125c0.10937 0 0.19531-0.0859 0.19531-0.19922l4e-3 -7.5977c0-0.15234 0.20703-0.1875 0.25781-0.0469l2.8125 7.7148c0.0273 0.0781 0.10156 0.12891 0.1875 0.12891h2.0039c0.10937 0 0.19922-0.0859 0.19922-0.19922v-15.234c0-0.11328-0.0899-0.20312-0.19922-0.20312m-12.555 11.863c0 0.47656-0.12891 0.82812-0.38281 1.0469-0.26563 0.22266-0.57032 0.33594-0.9375 0.33594-0.36328 0-0.66797-0.11328-0.9375-0.33984-0.25391-0.21485-0.38282-0.56641-0.38282-1.0469l4e-3 -8.082c0-0.48437 0.125-0.82812 0.38281-1.0469 0.26563-0.22657 0.57032-0.33594 0.9336-0.33594 0.36718 0 0.67187 0.10937 0.9375 0.33594 0.2539 0.21875 0.38281 0.57031 0.38281 1.0469zm1.293-11.016c-0.36328-0.32031-0.77735-0.5664-1.2344-0.73046-0.90625-0.32422-1.8476-0.32422-2.7539 0-0.45703 0.16406-0.8711 0.41015-1.2344 0.73046-0.37109 0.32422-0.66797 0.73438-0.89453 1.2266-0.22266 0.49218-0.33594 1.0664-0.33594 1.7031v8.082c0 0.65625 0.11328 1.2305 0.33594 1.7148 0.22656 0.48437 0.52344 0.89453 0.89063 1.2148 0.36328 0.32031 0.78125 0.56641 1.2344 0.73047 0.45313 0.16406 0.91797 0.24609 1.3789 0.24609 0.46093 0 0.92578-0.082 1.3789-0.24609 0.45313-0.16406 0.8711-0.41016 1.2344-0.73047 0.36719-0.32031 0.66797-0.73047 0.89062-1.2148 0.22266-0.48438 0.33594-1.0586 0.33594-1.7109v-8.0859c0-0.63672-0.11328-1.2109-0.33594-1.7031-0.22265-0.49219-0.52343-0.90235-0.89062-1.2266m-9.2266 0.0937c-0.32813-0.33593-0.72266-0.60156-1.1719-0.78906-0.92578-0.38281-2.0898-0.36328-2.9727 0-0.45703 0.1875-0.85546 0.44922-1.1836 0.77735-0.33203 0.32812-0.58984 0.72265-0.76953 1.1719s-0.26953 0.94141-0.26953 1.4609v8.4297c0 0.72265 0.11719 1.332 0.34765 1.8125 0.23438 0.47656 0.53125 0.86718 0.89454 1.1602 0.36328 0.29688 0.77343 0.50391 1.2226 0.625 0.44141 0.11719 0.88281 0.17578 1.3086 0.17578 0.51171 0 0.99218-0.10156 1.4375-0.30468 0.4375-0.19922 0.82812-0.47266 1.1562-0.8086 0.32812-0.33594 0.58984-0.73437 0.77343-1.1797 0.1875-0.44921 0.28125-0.92578 0.28125-1.418v-0.91016c0-0.10938-0.0898-0.19922-0.19922-0.19922h-2.1211c-0.10937 0-0.19922 0.0898-0.19922 0.19922v0.71484c0 0.27735-0.0391 0.50782-0.11719 0.69141-0.0742 0.17578-0.17187 0.3125-0.28906 0.41016-0.11719 0.0976-0.25 0.17187-0.39062 0.21484-0.14844 0.0469-0.28907 0.0703-0.41407 0.0703-0.44921 0-0.74218-0.125-0.90625-0.3789-0.17578-0.26954-0.26562-0.61719-0.26562-1.0274v-7.8281c0-0.48438 0.0859-0.89063 0.25-1.1992 0.15234-0.28125 0.46094-0.41797 0.94141-0.41797 0.36718 0 0.64843 0.13281 0.85937 0.40625 0.22266 0.28906 0.33203 0.62109 0.33203 1.0195v0.69531c0 0.10938 0.0899 0.19922 0.19922 0.19922h2.1211c0.11329 0 0.19922-0.0898 0.19922-0.19922v-0.82422c0-0.55078-0.0937-1.0664-0.27734-1.5352-0.1875-0.46875-0.44922-0.87891-0.77734-1.2148"/>
 </g>
 <g transform="translate(-310.14 -245.88)" fill="#fff">
  <use x="386.07117" y="559.38641" width="100%" height="100%" xlink:href="#glyph0-15"/>
 </g>
 <g transform="translate(-310.14 -245.88)" fill="#fff">
  <use x="454.06207" y="559.38641" width="100%" height="100%" xlink:href="#glyph0-15"/>
 </g>
</svg>
