<svg version="1.2" xmlns="http://www.w3.org/2000/svg" viewBox="0 0 548 982" width="548" height="982">
	<title>Ligue1-verti-2024-naming</title>
	<style>
		.s0 { fill: #252525 } 
		.s1 { fill: #ffbc0d } 
	</style>
	<g id="Layer">
		<path id="Layer" class="s0" d="m428 10c-19.5 5.4-70.8 19.3-114 31-43.2 11.6-79 21.7-79.7 22.3-0.7 0.7-5.9 14.2-11.6 30.2l-10.4 29 27.7 0.5 27.8 0.5-3.8 13c-2.1 7.1-8.4 29.2-14 49-17.8 62.8-71 249.7-73 256.5-4.3 14.5-4.8 17-4.2 17.2 0.4 0.2 43.6 0.1 96.1-0.2l95.4-0.5 3.9-14c9.4-34 11.1-40.1 11.5-41.3 0.4-0.9-12.9-1.2-64.6-1.2-35.8 0-65.1-0.2-65.1-0.4 0-0.2 1.4-5 3-10.7 4.8-16.5 5.6-19.5 10.5-36.9 2.5-9.1 5.5-19.4 6.5-23 3-10.2 5.4-18.8 12.4-43.5 3.6-12.7 14.8-52.3 25-88 26.6-93.7 28.6-100.9 28.6-102.1 0-1 42.4-12.4 45.8-12.4 0.7 0 1.1 0.4 0.8 0.8-0.3 0.5-1.9 5.8-3.5 11.8-5 18.4-22.9 83.5-25 90.9-3.7 13.2-12.2 44-22.8 82.5-18 66-23.3 85.5-23.3 86.3 0 0.4 13.6 0.6 30.2 0.5l30.2-0.3 0.7-2.5c0.4-1.4 3.9-14.2 7.9-28.5 3.9-14.3 10.5-38.2 14.7-53 4.1-14.9 8.1-29.3 8.8-32 2.1-7.9 20.6-74.4 31.5-113.5 2.7-9.6 7.4-26.7 10.5-38 6.6-23.9 11.8-42.6 18.5-67 6.8-24.3 6.6-23 4.4-22.9-1.1 0.1-17.9 4.5-37.4 9.9z"/>
		<path id="Layer" class="s0" d="m169.8 508.5c-18.9 4.8-28.2 16.4-32.6 40.5-2.5 14.1-2.5 90.2 0.1 103.7 4.2 22.8 12.8 34.1 29.7 39.4 7.5 2.3 27.9 2.9 36.4 0.9 11.5-2.6 22.1-10.2 26.6-19 5.2-10.2 6.2-17.5 6.7-48.3 0.3-15.8 0.2-30.3-0.1-32.2l-0.7-3.5-24.1 0.2-24.1 0.3-3.8 10.5c-2.1 5.8-3.8 11.1-3.8 11.7-0.1 1 3.4 1.3 14.4 1.3h14.5v14.7c0 22.8-2.2 32.2-8.3 36.7-2.4 1.8-4.3 2.1-13 2.1-12.4 0-15.3-1.2-18.4-7.5-3.7-7.4-4.5-21.5-4-66.9 0.3-31.2 0.8-41.9 1.9-46.1 2.9-11 5.8-13 18.6-13 7.6 0 9.4 0.3 12.3 2.3 1.9 1.2 4 3.6 4.8 5.2 1.8 3.8 3.4 18.5 2.8 26.2-0.3 3.5-0.1 6.3 0.3 6.3 0.5 0 7-2.9 14.6-6.5l13.7-6.5-0.6-9.8c-1.2-21.6-9.8-34.9-26.6-41.3-7.3-2.8-28.6-3.6-37.3-1.4z"/>
		<path id="Layer" class="s0" d="m525.5 513.5c-12.1 3.6-22.7 6.8-23.5 7.3-1.1 0.7-5.7 16.4-6 20.4 0 0.5 5.2 0.8 11.5 0.8h11.5v75 75h14.5 14.5v-92.5c0-50.9-0.1-92.5-0.2-92.4-0.2 0-10.2 2.9-22.3 6.4z"/>
		<path id="Layer" class="s0" d="m0.7 509.7c-0.4 0.3-0.7 41.5-0.7 91.5v90.8h34.8 34.8l3.1-13 3-13h-23.4-23.3v-78.5-78.5h-13.8c-7.6 0-14.2 0.3-14.5 0.7z"/>
		<path id="Layer" class="s0" d="m87.7 509.6c-0.4 0.4-0.7 41.6-0.7 91.6v90.8h15 15l-0.2-91.3-0.3-91.2-14.1-0.3c-7.7-0.1-14.3 0.1-14.7 0.4z"/>
		<path id="Layer" class="s0" d="m255.4 510.3c-0.2 0.7-0.3 36.2-0.2 78.8 0.3 70.9 0.5 77.8 2.1 82.7 2.6 7.7 5.4 11.9 10.5 15.8 6.9 5.2 13.5 6.8 26.7 6.1 6-0.3 12-0.9 13.3-1.4 1.6-0.6 4.5-4.8 8.8-12.4l6.4-11.4v11.7 11.8h15 15l-0.2-91.3-0.3-91.2h-14.5-14.5l-0.3 76.6-0.2 76.7-2.8 1.1c-4.2 1.7-12.9 3.1-19.4 3.1-6.9 0-12.1-1.9-14-5.2-1-1.8-1.4-17.4-1.8-77.3l-0.5-75-14.3-0.3c-11.3-0.2-14.4 0-14.8 1.1z"/>
		<path id="Layer" class="s0" d="m373.7 509.7c-0.4 0.3-0.7 41.5-0.7 91.5v90.8h36.4 36.4l1.6-7.3c0.9-3.9 2.3-9.8 3.1-12.9l1.3-5.8h-24.9-24.9v-28.5-28.5h15.8 15.8l2.7-11.8c1.5-6.4 2.7-12.3 2.7-13 0-0.9-4.4-1.2-18.5-1.2h-18.5v-23.8-23.7l23.5 0.2c21.7 0.2 23.5 0.1 23.5-1.5-0.1-0.9-1.4-6.9-2.9-13.2l-2.9-11.5-34.4-0.3c-18.9-0.1-34.7 0.1-35.1 0.5z"/>
		<path id="Layer" class="s1" d="m337.2 755.1c-22.8 0-43.2 30.4-56.5 78-13.3-47.6-33.7-78-56.6-78-40.1 0-72.7 101.2-72.7 226.1h32.4c0-116 18-210 40.3-210 22.3 0 40.4 86.8 40.4 193.9h32.3c0-107.1 18.1-193.9 40.4-193.9 22.3 0 40.4 94 40.4 210h32.3c0-124.9-32.5-226.1-72.7-226.1z"/>
	</g>
</svg>