<?xml version="1.0" encoding="UTF-8" standalone="no"?>
<!-- Generator: Adobe Illustrator 16.0.3, SVG Export Plug-In . SVG Version: 6.00 Build 0)  -->

<svg
   xmlns:svg="http://www.w3.org/2000/svg"
   xmlns="http://www.w3.org/2000/svg"
   xmlns:sodipodi="http://sodipodi.sourceforge.net/DTD/sodipodi-0.dtd"
   xmlns:inkscape="http://www.inkscape.org/namespaces/inkscape"
   version="1.1"
   id="Layer_1"
   x="0px"
   y="0px"
   width="312.25003"
   height="245.56665"
   viewBox="0 0 312.25 245.56667"
   enable-background="new 0 0 286 142"
   xml:space="preserve"
   inkscape:version="0.91 r13725"
   sodipodi:docname="A.svg"><defs
     id="defs5320" /><sodipodi:namedview
     pagecolor="#ffffff"
     bordercolor="#666666"
     borderopacity="1"
     objecttolerance="10"
     gridtolerance="10"
     guidetolerance="10"
     inkscape:pageopacity="0"
     inkscape:pageshadow="2"
     inkscape:window-width="1366"
     inkscape:window-height="705"
     id="namedview5318"
     showgrid="false"
     inkscape:zoom="0.5"
     inkscape:cx="432.80278"
     inkscape:cy="107.54129"
     inkscape:window-x="-8"
     inkscape:window-y="-8"
     inkscape:window-maximized="1"
     inkscape:current-layer="Layer_1"
     inkscape:snap-grids="false"
     inkscape:object-nodes="true"
     inkscape:snap-smooth-nodes="true"
     fit-margin-top="0.5"
     fit-margin-right="0.5"
     fit-margin-bottom="0.5"
     fit-margin-left="0.5"
     inkscape:snap-intersection-paths="false"
     inkscape:snap-object-midpoints="true"
     inkscape:snap-center="true"
     inkscape:snap-page="false"
     inkscape:snap-global="true"
     showguides="false"
     units="px" /><rect
     id="rect4209"
     height="122.28334"
     width="311.25006"
     x="0.49993902"
     y="0.50000006"
     style="clip-rule:evenodd;fill:#000000;fill-opacity:1;fill-rule:evenodd;image-rendering:optimizeQuality;shape-rendering:geometricPrecision;text-rendering:geometricPrecision" /><rect
     style="clip-rule:evenodd;fill:#ffcc00;fill-opacity:1;fill-rule:evenodd;image-rendering:optimizeQuality;shape-rendering:geometricPrecision;text-rendering:geometricPrecision"
     y="122.78334"
     x="0.49993902"
     width="311.25006"
     height="122.28334"
     id="rect4333" /><g
     id="g4290"
     transform="matrix(0.87597322,0,0,0.87597322,180.43039,-28.229691)"><polygon
       transform="matrix(0.23199303,0,0,0.23199303,-228.48559,38.472762)"
       style="clip-rule:evenodd;fill:#ffffff;fill-rule:nonzero;image-rendering:optimizeQuality;shape-rendering:geometricPrecision;text-rendering:geometricPrecision"
       points="1168.98,191.282 1054.04,203.295 984.881,484.145 1097.22,484.145 "
       id="polygon4211" /><path
       style="clip-rule:evenodd;fill:#ffffff;fill-rule:nonzero;image-rendering:optimizeQuality;shape-rendering:geometricPrecision;text-rendering:geometricPrecision"
       inkscape:connector-curvature="0"
       d="m 101.76344,82.773236 c -7.732748,-0.82857 -19.809928,1.58222 -25.836128,6.17709 -0.0755,-2.48627 -0.52751,-4.4442 -1.05416,-6.47818 l -23.04901,2.78708 c 0.90376,6.47817 0,13.5582 -2.25984,23.199994 l -10.31996,42.33177 25.98694,0 10.69593,-43.23584 c 2.56147,-3.69082 6.70351,-6.25231 10.2445,-6.25231 4.29297,0 5.34769,3.23909 4.09226,8.43667 l -10.04294,41.05139 25.986228,0 11.14852,-44.59161 c 2.7116,-12.127484 -1.20568,-22.070334 -15.59242,-23.426194 z"
       id="path4213" /><path
       style="clip-rule:evenodd;fill:#ffcc00;fill-opacity:1;fill-rule:nonzero;image-rendering:optimizeQuality;shape-rendering:geometricPrecision;text-rendering:geometricPrecision"
       inkscape:connector-curvature="0"
       d="m 47.001482,64.469906 c 0,-7.005404 -6.10078,-12.654144 -13.93474,-12.654144 -7.984082,0 -14.462232,5.64874 -14.462232,12.654144 0,7.00483 6.402683,12.65444 14.010212,12.65444 7.98409,0 14.38676,-5.64961 14.38676,-12.65444 z"
       id="path4215" /><path
       style="clip-rule:evenodd;fill:#ffcc00;fill-opacity:1;fill-rule:nonzero;image-rendering:optimizeQuality;shape-rendering:geometricPrecision;text-rendering:geometricPrecision"
       inkscape:connector-curvature="0"
       d="m 84.614532,52.945072 c -8.00895,0 -13.73404,7.15634 -14.18607,15.893524 -0.30103,5.27306 2.56147,8.13474 7.83397,8.13474 9.1143,0 13.88499,-8.05928 14.31131,-16.194294 0.22642,-5.0469 -2.78648,-7.83397 -7.95919,-7.83397 z m -1.15451,4.44475 c 1.80781,0 2.71186,0.75282 2.63638,3.38922 -0.30192,4.519404 -2.71158,11.825864 -6.62914,11.825864 -1.65685,0 -2.7862,-0.97924 -2.6361,-3.23908 0.15096,-3.46468 2.56145,-11.975974 6.62886,-11.975974 z"
       id="path4217" /><path
       style="clip-rule:evenodd;fill:#ffcc00;fill-opacity:1;fill-rule:nonzero;image-rendering:optimizeQuality;shape-rendering:geometricPrecision;text-rendering:geometricPrecision"
       inkscape:connector-curvature="0"
       d="m 71.859542,55.355592 c -1.58137,-1.88301 -4.5194,-2.78707 -6.70376,-2.78707 -3.23881,0 -5.95067,1.05473 -8.13475,2.78707 -3.46466,2.71186 -5.57439,7.90944 -5.87547,13.633684 -0.30079,4.97142 2.71185,7.98409 7.90944,7.98409 3.54014,0 5.95011,-1.12937 8.61192,-3.08813 l -1.88331,-3.76631 c -1.83269,1.35579 -3.56501,2.33502 -5.29791,2.33502 -1.65686,0 -2.78649,-1.05388 -2.6364,-3.46467 0.22643,-3.53987 1.2057,-7.909164 3.39005,-9.942574 0.90377,-0.90405 1.95792,-1.65686 3.38921,-1.65686 1.20566,0 2.48599,0.60214 3.46523,1.73233 l 3.76575,-3.76659 z"
       id="path4219" /><path
       style="clip-rule:evenodd;fill:#ffcc00;fill-opacity:1;fill-rule:nonzero;image-rendering:optimizeQuality;shape-rendering:geometricPrecision;text-rendering:geometricPrecision"
       inkscape:connector-curvature="0"
       d="m 122.09995,52.870442 c -2.41079,-0.0755 -4.745,0.52666 -7.3565,3.01266 -0.40196,-1.80782 -1.88301,-3.01266 -4.2432,-3.01266 -2.25957,0 -4.89595,0.52666 -7.23098,2.8617 0,-1.28031 -0.37657,-2.25956 -0.60298,-2.8617 l -5.799688,0.90377 c 0.75308,1.95793 0.5275,4.97142 0,6.92935 l -4.21835,15.818054 5.95068,0 4.142858,-15.667094 c 1.50674,-2.03425 2.86253,-2.93801 4.46881,-2.93801 1.18023,0 1.88328,0.6027 1.78293,1.50675 0,0.52722 -0.15095,1.05472 -0.37654,2.03397 l -3.99191,15.064404 5.72424,0 4.14315,-15.591614 c 1.20483,-2.03424 2.71157,-3.01349 4.29294,-3.01349 1.13021,0 1.95877,0.67817 1.88331,1.65742 0,0.45202 -0.15013,0.82856 -0.37656,1.65714 l -3.99217,15.290544 5.87548,0 4.14286,-15.818054 c 0.30105,-1.05416 0.45201,-1.73233 0.5272,-2.63611 0.15039,-3.16362 -2.03397,-5.04689 -4.74556,-5.19702 z"
       id="path4221" /><path
       style="clip-rule:evenodd;fill:#ffffff;fill-rule:nonzero;image-rendering:optimizeQuality;shape-rendering:geometricPrecision;text-rendering:geometricPrecision"
       inkscape:connector-curvature="0"
       d="m -15.365884,83.602376 -8.210235,18.981644 c -3.088128,7.15551 -5.724515,13.85927 -8.05955,20.48757 l -0.37655,-39.469214 -23.425495,0 -19.433385,39.770794 2.108606,-40.674864 -25.910837,3.16361 5.272205,64.929054 22.822871,0 c 0,0 17.400265,-35.02584 18.906736,-39.09361 l 0.225873,39.09361 23.500663,0 38.716383,-67.188664 -26.13749,0 z"
       id="path4223" /><path
       style="clip-rule:evenodd;fill:#ffffff;fill-rule:nonzero;image-rendering:optimizeQuality;shape-rendering:geometricPrecision;text-rendering:geometricPrecision"
       inkscape:connector-curvature="0"
       d="m -126.6193,81.869386 c -6.77923,0 -11.82531,1.80782 -14.73817,3.46551 4.19346,-13.18193 5.1727,-25.384444 5.1727,-25.384444 l 0,0 c 0.15012,-1.95849 0.22559,-4.29379 0.15012,-5.8752 l -27.26684,3.31455 c 0.30107,4.36846 -0.30163,11.298644 -3.84178,26.061644 l -13.18166,54.384034 c -0.57726,2.63612 -2.03341,7.60754 -3.23909,9.41535 8.21023,2.71158 17.62558,5.19701 33.14253,5.19701 8.51157,0 15.29082,-1.58138 22.14526,-5.57356 11.82587,-6.92991 19.05712,-19.35875 22.06978,-31.41023 5.64961,-22.521824 -3.54014,-33.594924 -20.41293,-33.594924 z m -6.92935,34.799654 c -2.93801,12.50431 -6.85445,18.0776 -13.40809,18.0776 -2.71158,0 -4.97142,-0.67734 -6.10079,-1.58139 l 7.1555,-29.82827 c 1.35579,-1.1302 3.6911,-3.23881 7.60782,-3.23881 5.79971,0 7.90915,3.23881 4.74556,16.57084 z"
       id="path4225" /></g><path
     style="opacity:1;fill:#000000;fill-opacity:1;stroke:none;stroke-width:3.54330707;stroke-linecap:butt;stroke-linejoin:miter;stroke-miterlimit:4;stroke-dasharray:none;stroke-dashoffset:0;stroke-opacity:1"
     d="m 170.32223,138.85323 c -22.41043,0 -40.125,15.58114 -40.125,44.375 0,28.79386 13.21341,44.375 40.125,44.375 10.3142,0 23.08203,-4.06251 28.83203,-8.50001 l 0,-40.49999 -32.08203,0 0,15.75 11.75,0 0,15.30664 c -1.625,1 -5.375,1.69337 -8,1.69336 -12.34596,-4e-5 -17.375,-7.84203 -17.375,-28.125 0,-20.28297 7.77904,-28.12496 17.375,-28.125 5.17365,2e-5 12.1424,1.55922 17.46875,6.4043 l 11.11328,-12.33399 c -7.46843,-6.50478 -17.44413,-10.32031 -29.08203,-10.32031 z"
     id="path4300"
     inkscape:connector-curvature="0"
     sodipodi:nodetypes="sssccccccsssccs" /><rect
     style="opacity:1;fill:#000000;fill-opacity:1;stroke:none;stroke-width:3.54330707;stroke-linecap:butt;stroke-linejoin:miter;stroke-miterlimit:4;stroke-dasharray:none;stroke-dashoffset:0;stroke-opacity:1"
     id="rect4312"
     width="20.332087"
     height="84.999962"
     x="95.072205"
     y="140.60323" /><path
     style="opacity:1;fill:#000000;fill-opacity:1;stroke:none;stroke-width:3.54330707;stroke-linecap:butt;stroke-linejoin:miter;stroke-miterlimit:4;stroke-dasharray:none;stroke-dashoffset:0;stroke-opacity:1"
     d="m 34.322227,140.60323 0,85 49.58203,0 0,-15.75 -29.25,0 0,-69.25 z"
     id="rect4314"
     inkscape:connector-curvature="0"
     sodipodi:nodetypes="ccccccc" /><path
     style="opacity:1;fill:#000000;fill-opacity:1;stroke:none;stroke-width:3.54330707;stroke-linecap:butt;stroke-linejoin:miter;stroke-miterlimit:4;stroke-dasharray:none;stroke-dashoffset:0;stroke-opacity:1"
     d="m 235.82223,140.60323 -26.75,85 20.58203,0 c 0,0 11.68359,-39.55859 15.93359,-59.80859 5,20.5 15.73438,59.80859 15.73438,59.80859 l 21.33203,0 -25.25,-85 z"
     id="rect4324"
     inkscape:connector-curvature="0"
     sodipodi:nodetypes="cccccccc" /><rect
     style="opacity:1;fill:#000000;fill-opacity:1;stroke:none;stroke-width:3.54330707;stroke-linecap:butt;stroke-linejoin:miter;stroke-miterlimit:4;stroke-dasharray:none;stroke-dashoffset:0;stroke-opacity:1"
     id="rect4331"
     width="37.832027"
     height="14.999998"
     x="228.32227"
     y="194.1032" /></svg>