<?xml version="1.0" encoding="utf-8"?>
<!-- Generator: Adobe Illustrator 23.0.1, SVG Export Plug-In . SVG Version: 6.00 Build 0)  -->
<svg version="1.1"
	 id="svg337" inkscape:version="0.92.4 (5da689c313, 2019-01-14)" sodipodi:docname="UEFA Europa Conference League logo.svg" xmlns:cc="http://creativecommons.org/ns#" xmlns:dc="http://purl.org/dc/elements/1.1/" xmlns:inkscape="http://www.inkscape.org/namespaces/inkscape" xmlns:rdf="http://www.w3.org/1999/02/22-rdf-syntax-ns#" xmlns:sodipodi="http://sodipodi.sourceforge.net/DTD/sodipodi-0.dtd" xmlns:svg="http://www.w3.org/2000/svg"
	 xmlns="http://www.w3.org/2000/svg" xmlns:xlink="http://www.w3.org/1999/xlink" x="0px" y="0px" width="334.5px" height="250px"
	 viewBox="0 0 334.5 250" enable-background="new 0 0 334.5 250" xml:space="preserve">
<sodipodi:namedview  bordercolor="#666666" borderopacity="1.0" id="base" inkscape:current-layer="layer1" inkscape:cx="41.508451" inkscape:cy="24.173825" inkscape:document-units="mm" inkscape:pageopacity="0.0" inkscape:pageshadow="2" inkscape:snap-page="true" inkscape:window-height="1017" inkscape:window-maximized="1" inkscape:window-width="1920" inkscape:window-x="-8" inkscape:window-y="-8" inkscape:zoom="11.2" pagecolor="#ffffff" showgrid="false" units="px">
	</sodipodi:namedview>
<g>
	<path d="M191.9,22.6l10.7,2.8l1.7-6.5l-11-2.9c-6-1.6-10.2,0.7-11.7,6.4l-4.5,17.4c-0.2,0.8-0.1,1.6,0.2,2.2c0.4,0.6,1,1.1,1.8,1.3
		l4.1,1.1l2.9-11.2l12.4,3.2l1.7-6.5l-12.4-3.2l0.5-1.9C189,22.3,189.7,22.1,191.9,22.6z M157.1,13l-17.9,3.6
		c-0.8,0.2-1.5,0.6-1.9,1.2c-0.4,0.6-0.5,1.4-0.4,2.2l3.6,17.6c0.6,2.9,1.9,4.9,3.8,6.1c1.3,0.8,2.8,1.2,4.6,1.2
		c0.9,0,1.9-0.1,2.9-0.3l11.2-2.3l-1.3-6.6l-10.9,2.2c-2.2,0.5-3,0.2-3.5-2.3l-0.4-1.9l12.6-2.6l-1.3-6.6l-12.6,2.6l-1-4.7l13.8-2.8
		L157.1,13z M233,38c0.3-1,0.6-2.5-1.1-3.9l-1.1-0.8c-1.7-1.3-3-0.7-4-0.1l-25.5,16.5l6.7,3.8l16.2-10.5l-2.8,9.4l-2.5-1.9l-4.3,3
		l5.3,3.9l-1.2,4.2l5.8,5.3L233,38z M94.8,32.9C114.9,15.5,141,6,168.2,6c27.2,0,53.3,9.6,73.4,26.9c2.1,1.8,4.1,3.7,6,5.6l3.8-4.7
		c-1.9-1.9-3.8-3.7-5.9-5.5C224.3,10.1,196.8,0,168.2,0c-28.7,0-56.1,10.1-77.3,28.4c-2,1.8-4,3.6-5.9,5.5l3.8,4.7
		C90.7,36.6,92.7,34.7,94.8,32.9z M168.2,55.5c19.4,0,37.3,9,47.8,22.1l3.7-4.5c-11.6-13.8-30.5-23.2-51.4-23.2
		c-20.9,0-39.9,9.4-51.4,23.2l3.7,4.5C130.9,64.4,148.8,55.5,168.2,55.5z M119.3,52.7c-1.4,1.1-3,1.7-4.4,1.5
		c-1.8-0.2-2.9-0.9-4.7-3.1L100,38.5L94.5,43l11.2,13.7c2.4,2.9,5.1,4.5,8.3,4.8c0.4,0,0.7,0.1,1.1,0.1c3.1,0,6-1.1,8.7-3.3
		c3.1-2.5,4.8-5.5,5.2-9c0.4-3.2-0.6-6.1-3-9.1l-11.2-13.7l-5.5,4.5l10.2,12.6c1.8,2.2,2.3,3.4,2.1,5.2
		C121.6,50.2,120.7,51.6,119.3,52.7z M126,102.3h10.4c5.7,0,7.9,2.9,7.9,6.9c0,4-2.2,6.9-7.9,6.9H126V102.3z M145.5,150.4h15.6
		l-13.5-24.3c6.1-3.5,10.5-8.9,10.5-16.8c0-11.8-9.6-19.4-21.9-19.4h-24v60.5H126v-21.8h7.4L145.5,150.4z M107.6,235.2h15.1v-7.3
		h-15.1v-6.6H124V214H99.6v35.4h24.9v-7.3h-16.8V235.2z M142.7,235.4l4.1-10.9l4.1,10.9H142.7z M142.5,214l-14.3,35.4h9.1l2.6-6.7
		h13.8l2.6,6.7h9.1L151.1,214H142.5z M295.6,126.4l7.1-18.6l7.1,18.6H295.6z M310,89.9h-14.7l-24.5,60.5h15.6l4.4-11.5h23.7
		l4.4,11.5h15.6L310,89.9z M181.3,236.7h10.9v2.5c-1.8,2-4.6,3.5-8.1,3.5c-6.1,0-10.7-3.6-10.7-11c0-7.4,5-11,9.8-11
		c4.4,0,7.2,2.1,8.4,6.1l7.7-2.3c-1.8-6.6-7-11.1-16-11.1c-9.7,0-18,7-18,18.3s8.2,18.3,18.1,18.3c7.7,0,12.4-3,16.3-7.8v-11.8
		h-18.4V236.7z M225.4,235c0,4.7-2.4,7.7-6.9,7.7c-4.4,0-6.9-2.9-6.9-7.7v-21h-8.1v21.5c0,9.9,6.8,14.5,15,14.5
		c8.1,0,15-4.7,15-14.5V214h-8.1V235z M246.1,235.2h15v-7.3h-15v-6.6h16.4V214H238v35.4h24.9v-7.3h-16.8V235.2z M79,214h-8.1v35.4
		h24.8v-7.3H79V214z M103.4,89.9H89.6v35.9c0,8.1-4.1,13.1-11.8,13.1c-7.6,0-11.8-5-11.8-13.1V89.9H52.3v36.7
		c0,16.8,11.7,24.8,25.6,24.8c13.9,0,25.6-8,25.6-24.8V89.9z M245.2,102.3h9.2c6.1,0,8.6,3.2,8.6,7.6c0,4.4-2.4,7.6-8.6,7.6h-9.2
		V102.3z M231.3,150.4h13.8V130h9.8c11.9,0,21.7-6.9,21.7-20c0-13.1-9.8-20-21.7-20h-23.7V150.4z M193.8,100.9
		c8.6,0,15.5,6.2,15.5,19.2s-6.8,19.2-15.5,19.2c-8.6,0-15.5-6.2-15.5-19.2S185.2,100.9,193.8,100.9z M193.8,151.7
		c17.8,0,29.3-12,29.3-31.6c0-19.6-11.5-31.6-29.3-31.6c-17.8,0-29.3,12-29.3,31.6C164.6,139.7,176.1,151.7,193.8,151.7z
		 M15.7,126.1h25.7v-12.4H15.7v-11.3h28V89.9H1.9v60.5h42.5v-12.4H15.7V126.1z"/>
	<path d="M187,179.7h-6.1v-8.1h6.1c3.3,0,4.6,1.7,4.6,4S190.3,179.7,187,179.7z M199.7,175.7c0-6.9-5.6-11.3-12.8-11.3h-14v35.3h8.1
		V187h4.3l7.1,12.7h9.1l-7.9-14.2C197.1,183.5,199.7,180.3,199.7,175.7z M17.3,170.9c3.8,0,6.3,2.1,7.3,6.1l8.2-1.6
		c-1.5-7.6-7.3-11.9-15.4-11.9c-9.9,0-17.3,7-17.3,18.5c0,11.5,7.3,18.5,17.1,18.5c8.1,0,13.9-4.7,15.6-12.6l-8-1.6
		c-0.8,3.8-3.3,6.8-7.6,6.8c-5.1,0-8.9-4-8.9-11.1S12.2,170.9,17.3,170.9z M231,192.4h-16.8v-6.9h15v-7.3h-15v-6.6h16.4v-7.3h-24.4
		v35.3H231V192.4z M104.8,164.4h-7.9v22.3l-13.7-22.3h-8.7v35.3h7.9v-22.3l13.7,22.3h8.7V164.4z M52.5,193.2c-5,0-9-3.6-9-11.2
		c0-7.6,4-11.2,9-11.2c5,0,9,3.6,9,11.2C61.5,189.6,57.5,193.2,52.5,193.2z M52.5,163.5c-10.4,0-17.1,7-17.1,18.5
		c0,11.5,6.7,18.5,17.1,18.5c10.4,0,17.1-7,17.1-18.5C69.6,170.6,62.9,163.5,52.5,163.5z M166.2,192.4h-16.8v-6.9h15v-7.3h-15v-6.6
		h16.4v-7.3h-24.4v35.3h24.8V192.4z M289.1,170.9c3.8,0,6.3,2.1,7.3,6.1l8.2-1.6c-1.5-7.6-7.3-11.9-15.4-11.9
		c-9.9,0-17.3,7-17.3,18.5c0,11.5,7.3,18.5,17.1,18.5c8.1,0,13.9-4.7,15.6-12.6l-8-1.6c-0.8,3.8-3.3,6.8-7.6,6.8
		c-5.1,0-8.9-4-8.9-11.1S284.1,170.9,289.1,170.9z M134.9,171.6v-7.3h-24.4v35.3h8.1v-14.2h15v-7.3h-15v-6.6H134.9z M317.6,185.5h15
		v-7.3h-15v-6.6h16.4v-7.3h-24.4v35.3h24.8v-7.3h-16.8V185.5z M258.7,186.7L245,164.4h-8.7v35.3h7.9v-22.3l13.7,22.3h8.7v-35.3h-7.9
		V186.7z"/>
</g>
</svg>
