<?xml version="1.0" encoding="UTF-8"?>
<svg width="948" height="940" viewBox="0 0 711 705" xml:space="preserve" xmlns="http://www.w3.org/2000/svg" xmlns:xlink="http://www.w3.org/1999/xlink" zoomAndPan="magnify"><text transform="matrix(.75 0 0 .75 1.23 10.1)" fill="#01b223" fill-opacity="0" fill-rule="evenodd" font-family="sans-serif" font-size="120px" font-weight="bold" stroke-linecap="round" stroke-linejoin="round" stroke-width="43" style="text-align:center;line-height:normal;paint-order:stroke fill markers;shape-inside:url(#rect1177);text-decoration-color:#000000;white-space:pre" xml:space="preserve"><tspan x="303.32617" y="602.02148">UEFA
</tspan><tspan x="89.546875" y="752.02148">Conference
</tspan><tspan x="227.79883" y="902.02148">League</tspan></text><path d="m272 333c-0.825-0.541-4.41-2.87-7.98-5.18-14.2-9.23-30.3-24.1-40.4-37.3-17-22.2-27.4-46.6-32-74.6-1.84-11.2-1.84-34.8 8e-3 -46.9 5.35-35 21.7-66.7 46.9-91.4 11.3-11 25-21.5 27.5-21 1.08 0.208 2.19 3.12 5.26 13.8 2.71 9.39 3.69 13.9 3.22 14.8-0.37 0.711-2.94 3.11-5.72 5.34-2.78 2.22-8.25 7.38-12.2 11.5-25.5 26.5-38.6 62.8-36 99.4 1.91 26.5 11.1 50.6 27.4 71.5 6.74 8.67 20.6 21.7 29 27.4 6.15 4.11 7.29 5.19 7.31 6.88 0.0264 2.05-7.81 24.2-9.17 25.9-0.906 1.14-1.27 1.13-3.18-0.125zm159-11.4c-2.52-6.84-4.59-13.3-4.59-14.4 7.5e-4 -1.56 0.752-2.48 3.37-4.13 26.6-16.8 47.9-46 56.2-76.9 3.53-13.2 4.39-21.4 3.97-37.9-0.422-16.7-1.33-22.1-6.2-37.2-7.56-23.4-24.2-46.7-45.4-63.4-1.05-0.825-2.15-1.9-2.45-2.39-0.298-0.49 0.94-6.06 2.75-12.4 1.81-6.32 3.5-12.3 3.76-13.4 0.952-3.84 1.57-4.14 4.72-2.28 6.56 3.87 19 14.5 28.7 24.4 47.3 48.8 58.5 121 28.1 182-10.9 21.8-29.3 43.6-49.8 58.8-4.73 3.52-17.2 11.4-18 11.4-0.3 0-2.61-5.6-5.14-12.4z" fill="#01b223"/><path d="m295 358c-0.722-0.205-1.31-0.507-1.31-0.673 0-0.165 0.973-2.76 2.16-5.76 1.19-3 3.59-9.51 5.33-14.5s3.51-9.42 3.93-9.94c0.595-0.733 11.7-0.935 51.1-0.926 27.7 6e-3 50.7 0.259 51.2 0.562 0.47 0.303 2.43 4.94 4.35 10.3s4.38 12 5.45 14.8c1.08 2.79 1.7 5.32 1.4 5.62-0.611 0.612-121 1.05-124 0.445zm15-46.4c-0.215-0.215 0.574-3.64 1.76-7.61 4.76-16 9.53-44.3 11.2-66.3 1.29-17.2 0.494-55.4-1.48-70.8-0.847-6.6-1.54-12.5-1.53-13.1 0.0404-6.38 9.17 33.1 15.5 67.1l0.56 3 5.15 0.224c5.04 0.219 5.14 0.188 4.73-1.5-0.234-0.948-0.991-4.76-1.68-8.47-0.691-3.71-3.08-15-5.31-25.1-13.9-62.9-35.3-126-56.3-165-3.14-5.85-3.26-6.31-2.1-7.6 0.683-0.755 3.27-2.28 5.74-3.39 6.34-2.85 24.1-8.07 24.8-7.31 0.347 0.347 1.11 3.31 1.71 6.58 2.38 13.2 4.35 23 10.5 52.5 6.13 29.6 26 127 30.1 147 1.07 5.36 2.13 10.3 2.34 11.1 0.321 1.07 1.27 1.31 5.22 1.31 2.65 0 4.82-0.294 4.82-0.652 0-0.359-3.55-18.2-7.89-39.6-4.34-21.4-10.8-53.1-14.3-70.4s-8.07-40.1-10.1-50.6-4.93-24.7-6.38-31.5c-4.89-23-5.8-27.8-5.32-28.3 0.77-0.77 12.9-2.39 21.9-2.94l8.33-0.504 0.502 20.9c0.572 23.8 0.703 26.6 2.75 58.3 2.54 39.5 5.66 66.7 11.7 102 2.99 17.5 8.32 42 9.34 43.1 0.375 0.378 2.69 0.614 5.14 0.526 5.15-0.186 4.7-0.98 6.13 10.8 2.32 19.1 9.59 55 14.2 70.1 0.819 2.68 1.49 5.3 1.49 5.81 5e-3 0.74-9.77 0.938-46.4 0.938-25.5 0-46.6-0.176-46.8-0.392zm73.4-97.1c-3.12-13.1-7.35-36.1-9.79-53.2-7.05-49.4-9.96-85.6-10.7-133l-0.449-28.3 2.18 0.0268c3.7 0.0455 16.1 1.27 22.7 2.24l6.26 0.923-0.324 3.09c-0.178 1.7-1.38 9-2.66 16.2-9.97 56-12.4 124-6.46 182 1.43 14.1 1.17 17.6-0.717 9.66zm5.92-47.6c-1.34-23.2 1.02-79.5 4.54-108 1.72-14.1 5.46-38.2 7.07-45.4 0.367-1.65 0.861-3.93 1.1-5.06 0.584-2.79 1.98-2.69 12.9 0.85 11.1 3.59 18.3 7.11 18.3 8.92 0 0.721-1.54 4.85-3.43 9.18-17.9 41-34 99-37.9 136-1.54 14.8-1.9 15.3-2.57 3.75z"/><path d="m233 445c-1.27-1.73-2.31-3.39-2.31-3.68 0-0.294 2.45-2.69 5.44-5.33 26.9-23.7 58.2-38.2 94.3-43.8 6.49-1 13-1.33 26.2-1.3 18.6 0.0301 29.6 1.24 43.7 4.82 24 6.09 49.5 18.5 67.7 32.9 6.8 5.38 13.9 12.1 13.9 13.2 0 1.25-4.46 6.43-5.54 6.43-0.512 0-1.92-1.05-3.13-2.33-3.46-3.65-16.6-14-23.2-18.2-28.4-18.3-59.6-27.4-94.1-27.4-43-0.0241-81.7 14.8-114 43.7-2.67 2.37-5.2 4.31-5.64 4.31s-1.83-1.42-3.1-3.15z"/><path d="m436 488c-3.74-3.5-3.79-3.59-3.32-7.07 0.464-3.5 0.446-3.53-2.93-5.96-1.87-1.34-3.39-2.7-3.39-3.02 0-0.934 4.9-4.41 6.21-4.41 0.659 0 1.41 0.338 1.66 0.75 1.02 1.65 1.88 0.518 3.34-4.39 2.44-8.19 3.66-8.43-13.3 2.65l-8.46 5.53-4.84-2.83c-2.66-1.56-4.73-3.17-4.6-3.58 0.266-0.85 35.9-24 38.7-25.2 1.02-0.417 2.57-0.578 3.45-0.358 2.37 0.594 5.58 4.13 5.58 6.14 0 0.965-2.38 9.95-5.28 20-6.73 23.2-7.43 25.3-8.31 25.3-0.397 0-2.43-1.6-4.51-3.55zm-168-5.69c-3.82-1.83-7.47-5.7-19.5-20.7l-4.44-5.54 3.73-3.26c2.05-1.79 4.13-3.27 4.62-3.28 0.492-8e-3 3.86 3.61 7.49 8.05 9.15 11.2 11.3 13.4 13.8 14.4 4.77 1.98 11.2-2.73 11.2-8.18 0-3.04-1.04-4.6-12.2-18.3-3.2-3.93-5.81-7.43-5.81-7.78 0-0.344 1.81-2.04 4.02-3.76l4.02-3.14 2.22 2.4c1.22 1.32 3.71 4.25 5.54 6.52s3.49 4.29 3.7 4.5c1.25 1.22 6.1 7.63 7.94 10.5 1.86 2.9 2.17 4.11 2.16 8.62-0.0143 7.87-3.58 13.5-11.5 18.2-4.82 2.85-12 3.15-17.1 0.718zm55.3-23.7c-6.58-1.61-8.4-4.99-11.8-21.8-3.1-15.5-3.23-18.3-0.889-19.8 2.2-1.38 27.7-6.64 28.5-5.87 1.13 1.13 2.28 9.32 1.39 9.87-0.452 0.279-5.07 1.31-10.3 2.29l-9.43 1.79 0.481 3.01c0.265 1.65 0.605 3.13 0.757 3.28 0.152 0.152 4.37-0.551 9.37-1.56 10.5-2.13 10.5-2.16 10.8 4.85l0.164 3.89-7.91 1.6c-10.5 2.13-10.5 2.1-9.81 4.59 0.931 3.48 2.14 3.69 11.2 1.91 4.57-0.894 8.79-1.62 9.39-1.62 1.35 0 1.72 0.963 2.37 6.16l0.518 4.15-8.51 1.57c-11.9 2.19-13.4 2.35-16.3 1.64zm49.7-1.86c-4.39-1.91-4.42-2.75-0.561-17.9 6.35-24.9 8.94-27 27.3-22.4 5.11 1.28 9.63 2.66 10.1 3.08 0.741 0.741-0.426 8.64-1.42 9.64-0.229 0.229-4.2-0.501-8.83-1.62-10.8-2.62-11.4-2.6-12.5 0.38-0.458 1.31-0.576 2.62-0.261 2.91 0.315 0.285 4.12 1.43 8.45 2.55 4.33 1.12 8.18 2.33 8.56 2.69 0.926 0.886-0.91 8.95-2.15 9.42-0.822 0.315-13.9-2.65-17.1-3.87-0.851-0.327-1.47 1.02-2.69 5.9-2.78 11.1-3.27 11.6-8.87 9.16z"/><path d="m281 504-2.8-3.41 2-2.62c1.1-1.44 4.32-4.62 7.15-7.06 20.6-17.7 46.3-26.6 73.4-25.4 25.8 1.17 48.8 10.7 66.5 27.7l6.72 6.43-1.42 2.67c-3.05 5.74-3.36 5.71-9.93-0.828-14.3-14.2-32-23-53-26-10.2-1.5-17.4-1.5-27.4-9e-3 -20.8 3.08-39.1 12.2-53.4 26.7l-5.08 5.16-2.8-3.41z"/><path d="m31.9 605c-13.2-2.74-21.7-8.6-26.6-18.2-6.91-13.7-6.9-28.9 0.0403-42.7 3.77-7.48 8.09-11.5 16.7-15.6 5.39-2.56 6.54-2.82 13.9-3.12 10.3-0.423 17.5 1.48 24.1 6.39 6.41 4.72 11.4 13.1 11.2 18.6-0.0394 0.932-7.57 2.55-12.1 2.59-3.14 0.0306-3.63-0.252-7.5-4.36-5.36-5.69-7.71-6.85-13.9-6.85-12.7 0-19.8 9.54-19 25.4 0.677 13.5 7.77 21.8 18.6 21.9 5.37 0.0217 9.69-2.12 13.5-6.71 4.01-4.78 7.82-6.33 14-5.67 2.54 0.272 5.17 0.894 5.83 1.38 1.12 0.818 1.11 1.19-0.0455 4.64-2.85 8.47-9.07 15.5-17.1 19.2-6.31 2.93-16.2 4.39-21.8 3.21zm74.1-0.599c-13.8-3.14-23.7-13.7-26.8-28.6-2.81-13.3 0.0554-27.9 7.36-37.7 2.97-3.96 9.88-8.87 15-10.6 6.7-2.33 19-2.9 24.9-1.17 13.3 3.86 22.6 13.4 25.5 26.2 1.43 6.3 1.59 18.2 0.327 24.3-2.63 12.7-10.9 22.3-22.8 26.5-5.87 2.06-17 2.59-23.4 1.13zm18.9-17.5c13.9-7.61 13.5-36.6-0.609-43.8-4.41-2.27-12.5-2.22-17.3 0.11-6.74 3.26-10.2 10.6-10.2 21.6 0 11.3 3.47 18.7 10.4 22.4 4.91 2.59 12.6 2.45 17.7-0.335zm481 17.5c-6.27-1.36-11.8-4.32-16.6-8.89-7.56-7.15-10.6-14.5-11.2-27.3-0.694-14.2 2.25-23.6 9.91-31.6 7.21-7.56 16.3-11.3 27.3-11.3 7.87 0.0224 11.5 0.808 17.8 3.89 7.79 3.8 15.3 13.3 15.6 19.7 0.0863 2.08-0.163 2.29-3.66 3.12-2.06 0.488-5.58 0.92-7.81 0.96-4.04 0.0718-4.07 0.0556-8.7-4.78-5.37-5.61-7.03-6.41-13.4-6.38-9.93 0.0353-16.6 6.41-18.6 17.7-2.24 12.9 2.96 25.3 11.8 28.3 7.9 2.69 13.9 0.958 20.3-5.8 2.81-3 4.8-4.42 7.05-5.03 3.18-0.857 10.7-0.403 12.6 0.758 2.43 1.5-2.14 11.9-7.73 17.5-8.33 8.41-21.8 12-34.7 9.15zm-445-0.863c-0.638-0.638-0.685-72.7-0.0498-75.1 0.419-1.56 0.872-1.69 6.23-1.69 6.97 0 12 1.56 15.3 4.77 1.34 1.3 7.83 11.1 14.4 21.8l12 19.4 0.199-22c0.133-14.7 0.474-22.3 1.03-23 0.598-0.721 3.09-1 8.91-1 6.67 0 8.16 0.206 8.53 1.19 0.595 1.55 0.595 73.3 0 74.9-0.696 1.81-13.1 1.64-17.2-0.236-4.1-1.9-5.96-4.15-12.8-15.5-3.23-5.36-8.59-14.1-11.9-19.5l-6.06-9.75-0.75 45.8-8.66 0.21c-4.77 0.116-8.9-0.0251-9.19-0.312zm80.2 0c-0.901-0.901-0.606-63.3 0.314-66.6 1.06-3.82 5.48-8.24 9.31-9.31 1.84-0.51 10.8-0.83 23.4-0.832l20.4-0.00419v15.6l-31.6 0.484-1.81 2.1c-1.51 1.75-1.81 2.91-1.81 6.94v4.83h14.3c11.8 0 14.3 0.191 14.7 1.08 0.742 1.93-1.82 9-4 11-3.69 3.45-5.4 3.92-15.4 4.25l-9.55 0.315-0.203 15.1-0.203 15.1-8.66 0.21c-4.77 0.116-8.9-0.0251-9.19-0.312zm80.3-0.696c-8.16-1.98-16.2-8.69-19.8-16.5-2.96-6.46-4.11-21.7-2.48-32.9 1.13-7.84 3.88-13.2 9.4-18.4 7.49-7.01 10.2-7.79 28.6-8.15l15.2-0.292v15.7l-12.2 0.299c-10.7 0.262-12.6 0.505-15.6 1.95-3.84 1.88-6.61 5.49-7.25 9.44l-0.439 2.7 32.1 0.405 0.242 2.53c0.332 3.47-1.02 6.36-4.4 9.42-3.86 3.49-6.88 4.17-18.4 4.18l-9.86 5e-3 0.552 2.44c0.948 4.19 2.97 7.24 6.19 9.38 3.02 2 3.46 2.07 16.3 2.43l13.2 0.375 0.426 16.1-13.7-0.0625c-8.97-0.0409-15.2-0.425-18-1.11zm43.3 0.236c-0.198-0.516-0.271-17.8-0.164-38.4l0.195-37.5h42.8l4.96 2.44c9.13 4.5 14.2 12.4 14.7 23.1 0.54 10.4-2.56 17.5-10.2 23.4-2.02 1.56-4.3 3.21-5.06 3.67-1.27 0.747-0.645 1.82 7.02 12.1 4.63 6.19 8.42 11.5 8.42 11.7 0 0.267-4.9 0.485-10.9 0.485h-10.9l-6.82-9.14c-3.75-5.03-7.12-9.94-7.5-10.9-0.372-0.979-0.677-3.67-0.677-5.98 0-6.57 2.28-9.77 9.7-13.6 3.3-1.72 6.52-3.86 7.15-4.76 1.57-2.24 1.52-9.44-0.073-11.7-2.06-2.94-5.17-3.69-15.5-3.76l-9.56-0.0613v60h-8.65c-6.23 0-8.75-0.262-9.01-0.938zm94.6 0.159c-7.6-1.29-15-6.24-19.4-12.9-4.49-6.83-5.07-9.7-5.07-25 0-11.4 0.23-14.3 1.42-17.8 2.53-7.35 6.65-12.5 13.4-16.6 5.38-3.33 11.4-4.26 25.9-4.03l12.9 0.205v15l-12.4 0.438c-13.9 0.491-16.7 1.24-19.7 5.3-1.95 2.63-2.75 4.39-3.29 7.19l-0.32 1.67 32.6 0.404-0.136 3.12c-0.294 6.77-4.74 11.2-12.4 12.3-2.61 0.377-8.24 0.692-12.5 0.7l-7.78 0.0151 0.477 2.39c0.865 4.33 3.96 8.61 7.44 10.3 2.88 1.4 4.6 1.57 15.3 1.57 9.41 0 12.2 0.23 12.9 1.05 0.562 0.677 0.794 3.54 0.654 8.06l-0.217 7.01-13.1 0.108c-7.22 0.0592-14.8-0.171-16.8-0.511zm42-0.385c-0.255-0.665-0.464-17.5-0.464-37.4 0-29 0.199-36.4 1-37.5 0.87-1.19 1.83-1.32 7.31-1.03 6.72 0.366 9.99 1.56 13.7 5.01 1.17 1.09 7.58 10.7 14.2 21.4l12.1 19.5 0.75-45.7 8.19-0.214c4.5-0.118 8.49 0.0929 8.87 0.468 0.673 0.673 1.36 72.7 0.72 75.3-0.276 1.12-1.24 1.31-6.42 1.31-7.96-5e-3 -11.5-1.05-14.8-4.39-1.48-1.5-8.07-11.5-14.6-22.2l-12-19.5-0.75 45.8-8.72 0.211c-7.46 0.18-8.79 0.0352-9.19-0.999zm182 0.448c-10.3-1.1-18-5.54-22.9-13.2-4.1-6.4-4.85-10.3-4.85-25 0-15.7 0.798-19.2 5.88-25.8 7.84-10.3 14.8-12.7 35-12.4l12.8 0.214 0.426 15.2-13 0.305c-13.4 0.315-14.9 0.626-18.5 3.9-2.12 1.92-3.49 4.51-4.11 7.77l-0.46 2.42 32.6 0.404 0.235 2.04c0.352 3.05-2.33 8.36-5.41 10.7-3.06 2.33-8.92 3.27-20.9 3.34l-6.62 0.0404 0.516 2.44c0.832 3.93 3.47 8.01 6.32 9.79 2.4 1.5 3.92 1.69 16.2 2.03l13.5 0.375v15.8l-10.9 0.0905c-5.98 0.0498-13.1-0.144-15.8-0.431z"/><path d="m381 704c-10.1-1.55-14.9-3.6-20.8-8.84-4.58-4.12-7.91-9.11-10.1-15.1-2.18-6.05-2.37-19-0.362-25.1 5.34-16 18.6-25.5 35.6-25.5 14.7 0 25.5 5.93 30.5 16.8 2.49 5.34 2.35 6.27-1 7.18-1.55 0.417-4.5 1.27-6.56 1.9-5.43 1.65-6.17 1.49-7.79-1.66-3.02-5.89-7.74-8.44-15.7-8.44-11.9 0-19.7 8.54-19.7 21.8 0 8.91 3.99 16.2 10.8 19.7 4.27 2.2 13.2 2.68 18.3 0.985 5.04-1.68 8.37-4.79 8.37-7.84v-2.32h-6.79c-7.28 0-9.54-0.723-12.6-4.03-1.23-1.32-1.91-3.1-2.16-5.7l-0.363-3.77h16.6c9.98 0 17.2 0.309 18.1 0.772 2.51 1.35 3.71 4.78 3.71 10.7 0 14.7-7.07 23.6-21.4 27.1-4.82 1.17-13.8 1.97-16.9 1.5zm70.5-0.389c-8.21-1.36-15.6-6.05-19.2-12.2-3.84-6.55-4.08-8.64-4.09-35.4l-8e-3 -24.9 1.69-0.452c2.21-0.592 6.99-0.591 11.3 5e-3l3.48 0.477 0.0149 20.3c8e-3 11.2 0.35 22.7 0.759 25.5 1.24 8.57 4.87 11.9 13.1 12 5.56 0.0405 8.65-1.43 11-5.27 1.73-2.78 1.77-3.23 2.13-27.6l0.375-24.7 3.58-0.654c1.97-0.36 5.78-0.419 8.47-0.131l4.89 0.524-0.223 26.4-0.223 26.4-1.98 4.22c-5.82 12.4-19 18.2-35.1 15.6zm-281-1.42c-1.2-0.363-3.47-1.91-5.04-3.44-4.3-4.2-4.52-6.24-4.26-38.9l0.23-28.5 3.75-0.446c2.06-0.245 5.86-0.283 8.44-0.0848l4.69 0.361 0.011 26c8e-3 19.4 0.25 26.4 0.959 27.8l0.948 1.88 30.7 0.75v15l-19.1 0.129c-10.5 0.0712-20.1-0.168-21.3-0.531zm65.7-0.387c-5.3-1.44-9.85-4.19-13.5-8.17-6.49-7.04-7.93-12.7-7.5-29.4 0.295-11.5 0.391-12.1 2.66-17 2.86-6.11 7.48-10.9 13.2-13.7 3.67-1.8 5.81-2.23 14.2-2.87 5.44-0.413 12.2-0.505 15-0.203l5.06 0.548v14.9h-10.2c-5.59 0-11.6 0.365-13.4 0.81-3.77 0.949-6.94 3.65-8.41 7.15-2.08 4.98-2.62 4.79 14.1 4.79h15.1l-0.366 3.81c-0.551 5.73-4.26 9.89-10 11.2-1.62 0.375-6.74 0.69-11.4 0.7-9.64 0.0205-9.75 0.116-6.75 6.03 2.83 5.58 4.9 6.3 19.3 6.74l12.4 0.375v15l-12.8 0.147c-9.16 0.106-13.9-0.157-16.7-0.935zm35.1 0.392c0-0.424 5.68-14.7 12.6-31.7 6.94-17 13.4-32.8 14.3-35.2 1.56-3.91 1.9-4.27 4.45-4.61 4.24-0.567 14.4-0.0328 15.3 0.8 0.67 0.67 6.11 13.7 15.3 36.5 1.82 4.54 5.65 14 8.53 21 2.87 7.01 4.97 13 4.66 13.3-0.313 0.323-4.58 0.492-9.48 0.375l-8.91-0.212-3.6-9.18-4.63-0.372c-9.2-0.739-15.5-6.15-15.5-13.4v-2.2h14.1l-4.59-12c-2.52-6.57-4.81-11.6-5.08-11.1s-2.93 7.3-5.92 15.1c-9.15 24.1-12.1 31.5-12.9 32.4-0.971 1.19-18.6 1.35-18.6 0.166zm249-0.383c-2.17-0.59-5.02-1.63-6.33-2.3-4.39-2.27-10.1-8.36-12.3-13.3-2.15-4.65-2.16-4.73-2.16-19.7v-15l2.44-4.95c2.9-5.9 7.64-10.5 13.6-13.2 3.53-1.62 5.79-2.03 13.3-2.41 4.95-0.256 11.6-0.317 14.8-0.136l5.84 0.33-0.427 14.4-12 0.375c-13.9 0.435-16.3 1.31-19.1 7.02-2.9 5.98-3.48 5.73 13.5 5.73h15.1l-0.366 3.81c-0.551 5.73-4.26 9.89-10 11.2-1.62 0.375-6.74 0.69-11.4 0.7-8.06 0.0171-8.44 0.0875-8.44 1.59 0 2.66 2.33 6.66 5.11 8.78 2.58 1.97 2.97 2.03 15.5 2.4l12.8 0.375v15l-12.8 0.147c-9.12 0.105-13.9-0.159-16.7-0.926z"/></svg>
